<mxfile host="app.diagrams.net" agent="Mozilla/5.0 (Windows NT 10.0; Win64; x64) AppleWebKit/537.36 (KHTML, like Gecko) Chrome/132.0.0.0 Safari/537.36" version="26.0.10">
  <diagram id="C5RBs43oDa-KdzZeNtuy" name="Page-1">
    <mxGraphModel dx="1861" dy="1623" grid="1" gridSize="10" guides="1" tooltips="1" connect="1" arrows="1" fold="1" page="1" pageScale="1" pageWidth="827" pageHeight="1169" math="0" shadow="0">
      <root>
        <mxCell id="WIyWlLk6GJQsqaUBKTNV-0" />
        <mxCell id="WIyWlLk6GJQsqaUBKTNV-1" parent="WIyWlLk6GJQsqaUBKTNV-0" />
        <mxCell id="zkfFHV4jXpPFQw0GAbJ--0" value="Person" style="swimlane;fontStyle=2;align=center;verticalAlign=top;childLayout=stackLayout;horizontal=1;startSize=26;horizontalStack=0;resizeParent=1;resizeLast=0;collapsible=1;marginBottom=0;rounded=0;shadow=0;strokeWidth=1;" parent="WIyWlLk6GJQsqaUBKTNV-1" vertex="1">
          <mxGeometry x="220" y="120" width="160" height="138" as="geometry">
            <mxRectangle x="230" y="140" width="160" height="26" as="alternateBounds" />
          </mxGeometry>
        </mxCell>
        <mxCell id="zkfFHV4jXpPFQw0GAbJ--1" value="Name" style="text;align=left;verticalAlign=top;spacingLeft=4;spacingRight=4;overflow=hidden;rotatable=0;points=[[0,0.5],[1,0.5]];portConstraint=eastwest;" parent="zkfFHV4jXpPFQw0GAbJ--0" vertex="1">
          <mxGeometry y="26" width="160" height="26" as="geometry" />
        </mxCell>
        <mxCell id="zkfFHV4jXpPFQw0GAbJ--2" value="Phone Number" style="text;align=left;verticalAlign=top;spacingLeft=4;spacingRight=4;overflow=hidden;rotatable=0;points=[[0,0.5],[1,0.5]];portConstraint=eastwest;rounded=0;shadow=0;html=0;" parent="zkfFHV4jXpPFQw0GAbJ--0" vertex="1">
          <mxGeometry y="52" width="160" height="26" as="geometry" />
        </mxCell>
        <mxCell id="zkfFHV4jXpPFQw0GAbJ--3" value="Email Address" style="text;align=left;verticalAlign=top;spacingLeft=4;spacingRight=4;overflow=hidden;rotatable=0;points=[[0,0.5],[1,0.5]];portConstraint=eastwest;rounded=0;shadow=0;html=0;" parent="zkfFHV4jXpPFQw0GAbJ--0" vertex="1">
          <mxGeometry y="78" width="160" height="26" as="geometry" />
        </mxCell>
        <mxCell id="zkfFHV4jXpPFQw0GAbJ--4" value="" style="line;html=1;strokeWidth=1;align=left;verticalAlign=middle;spacingTop=-1;spacingLeft=3;spacingRight=3;rotatable=0;labelPosition=right;points=[];portConstraint=eastwest;" parent="zkfFHV4jXpPFQw0GAbJ--0" vertex="1">
          <mxGeometry y="104" width="160" height="8" as="geometry" />
        </mxCell>
        <mxCell id="zkfFHV4jXpPFQw0GAbJ--5" value="Purchase Parking Pass" style="text;align=left;verticalAlign=top;spacingLeft=4;spacingRight=4;overflow=hidden;rotatable=0;points=[[0,0.5],[1,0.5]];portConstraint=eastwest;" parent="zkfFHV4jXpPFQw0GAbJ--0" vertex="1">
          <mxGeometry y="112" width="160" height="26" as="geometry" />
        </mxCell>
        <mxCell id="zkfFHV4jXpPFQw0GAbJ--6" value="Student" style="swimlane;fontStyle=0;align=center;verticalAlign=top;childLayout=stackLayout;horizontal=1;startSize=26;horizontalStack=0;resizeParent=1;resizeLast=0;collapsible=1;marginBottom=0;rounded=0;shadow=0;strokeWidth=1;" parent="WIyWlLk6GJQsqaUBKTNV-1" vertex="1">
          <mxGeometry x="120" y="360" width="160" height="138" as="geometry">
            <mxRectangle x="130" y="380" width="160" height="26" as="alternateBounds" />
          </mxGeometry>
        </mxCell>
        <mxCell id="zkfFHV4jXpPFQw0GAbJ--7" value="Student Number" style="text;align=left;verticalAlign=top;spacingLeft=4;spacingRight=4;overflow=hidden;rotatable=0;points=[[0,0.5],[1,0.5]];portConstraint=eastwest;" parent="zkfFHV4jXpPFQw0GAbJ--6" vertex="1">
          <mxGeometry y="26" width="160" height="26" as="geometry" />
        </mxCell>
        <mxCell id="zkfFHV4jXpPFQw0GAbJ--8" value="Average Mark" style="text;align=left;verticalAlign=top;spacingLeft=4;spacingRight=4;overflow=hidden;rotatable=0;points=[[0,0.5],[1,0.5]];portConstraint=eastwest;rounded=0;shadow=0;html=0;" parent="zkfFHV4jXpPFQw0GAbJ--6" vertex="1">
          <mxGeometry y="52" width="160" height="26" as="geometry" />
        </mxCell>
        <mxCell id="zkfFHV4jXpPFQw0GAbJ--9" value="" style="line;html=1;strokeWidth=1;align=left;verticalAlign=middle;spacingTop=-1;spacingLeft=3;spacingRight=3;rotatable=0;labelPosition=right;points=[];portConstraint=eastwest;" parent="zkfFHV4jXpPFQw0GAbJ--6" vertex="1">
          <mxGeometry y="78" width="160" height="8" as="geometry" />
        </mxCell>
        <mxCell id="zkfFHV4jXpPFQw0GAbJ--10" value="Is Eligible To Enroll" style="text;align=left;verticalAlign=top;spacingLeft=4;spacingRight=4;overflow=hidden;rotatable=0;points=[[0,0.5],[1,0.5]];portConstraint=eastwest;fontStyle=4" parent="zkfFHV4jXpPFQw0GAbJ--6" vertex="1">
          <mxGeometry y="86" width="160" height="26" as="geometry" />
        </mxCell>
        <mxCell id="zkfFHV4jXpPFQw0GAbJ--11" value="Get Seminars Taken" style="text;align=left;verticalAlign=top;spacingLeft=4;spacingRight=4;overflow=hidden;rotatable=0;points=[[0,0.5],[1,0.5]];portConstraint=eastwest;" parent="zkfFHV4jXpPFQw0GAbJ--6" vertex="1">
          <mxGeometry y="112" width="160" height="26" as="geometry" />
        </mxCell>
        <mxCell id="zkfFHV4jXpPFQw0GAbJ--12" value="" style="endArrow=block;endSize=10;endFill=0;shadow=0;strokeWidth=1;rounded=0;curved=0;edgeStyle=elbowEdgeStyle;elbow=vertical;" parent="WIyWlLk6GJQsqaUBKTNV-1" source="zkfFHV4jXpPFQw0GAbJ--6" target="zkfFHV4jXpPFQw0GAbJ--0" edge="1">
          <mxGeometry width="160" relative="1" as="geometry">
            <mxPoint x="200" y="203" as="sourcePoint" />
            <mxPoint x="200" y="203" as="targetPoint" />
          </mxGeometry>
        </mxCell>
        <mxCell id="zkfFHV4jXpPFQw0GAbJ--13" value="Professor" style="swimlane;fontStyle=0;align=center;verticalAlign=top;childLayout=stackLayout;horizontal=1;startSize=26;horizontalStack=0;resizeParent=1;resizeLast=0;collapsible=1;marginBottom=0;rounded=0;shadow=0;strokeWidth=1;" parent="WIyWlLk6GJQsqaUBKTNV-1" vertex="1">
          <mxGeometry x="330" y="360" width="160" height="70" as="geometry">
            <mxRectangle x="340" y="380" width="170" height="26" as="alternateBounds" />
          </mxGeometry>
        </mxCell>
        <mxCell id="zkfFHV4jXpPFQw0GAbJ--14" value="Salary" style="text;align=left;verticalAlign=top;spacingLeft=4;spacingRight=4;overflow=hidden;rotatable=0;points=[[0,0.5],[1,0.5]];portConstraint=eastwest;" parent="zkfFHV4jXpPFQw0GAbJ--13" vertex="1">
          <mxGeometry y="26" width="160" height="26" as="geometry" />
        </mxCell>
        <mxCell id="zkfFHV4jXpPFQw0GAbJ--15" value="" style="line;html=1;strokeWidth=1;align=left;verticalAlign=middle;spacingTop=-1;spacingLeft=3;spacingRight=3;rotatable=0;labelPosition=right;points=[];portConstraint=eastwest;" parent="zkfFHV4jXpPFQw0GAbJ--13" vertex="1">
          <mxGeometry y="52" width="160" height="8" as="geometry" />
        </mxCell>
        <mxCell id="zkfFHV4jXpPFQw0GAbJ--16" value="" style="endArrow=block;endSize=10;endFill=0;shadow=0;strokeWidth=1;rounded=0;curved=0;edgeStyle=elbowEdgeStyle;elbow=vertical;" parent="WIyWlLk6GJQsqaUBKTNV-1" source="zkfFHV4jXpPFQw0GAbJ--13" target="zkfFHV4jXpPFQw0GAbJ--0" edge="1">
          <mxGeometry width="160" relative="1" as="geometry">
            <mxPoint x="210" y="373" as="sourcePoint" />
            <mxPoint x="310" y="271" as="targetPoint" />
          </mxGeometry>
        </mxCell>
        <mxCell id="zkfFHV4jXpPFQw0GAbJ--17" value="Address" style="swimlane;fontStyle=0;align=center;verticalAlign=top;childLayout=stackLayout;horizontal=1;startSize=26;horizontalStack=0;resizeParent=1;resizeLast=0;collapsible=1;marginBottom=0;rounded=0;shadow=0;strokeWidth=1;" parent="WIyWlLk6GJQsqaUBKTNV-1" vertex="1">
          <mxGeometry x="508" y="120" width="160" height="216" as="geometry">
            <mxRectangle x="550" y="140" width="160" height="26" as="alternateBounds" />
          </mxGeometry>
        </mxCell>
        <mxCell id="zkfFHV4jXpPFQw0GAbJ--18" value="Street" style="text;align=left;verticalAlign=top;spacingLeft=4;spacingRight=4;overflow=hidden;rotatable=0;points=[[0,0.5],[1,0.5]];portConstraint=eastwest;" parent="zkfFHV4jXpPFQw0GAbJ--17" vertex="1">
          <mxGeometry y="26" width="160" height="26" as="geometry" />
        </mxCell>
        <mxCell id="zkfFHV4jXpPFQw0GAbJ--19" value="City" style="text;align=left;verticalAlign=top;spacingLeft=4;spacingRight=4;overflow=hidden;rotatable=0;points=[[0,0.5],[1,0.5]];portConstraint=eastwest;rounded=0;shadow=0;html=0;" parent="zkfFHV4jXpPFQw0GAbJ--17" vertex="1">
          <mxGeometry y="52" width="160" height="26" as="geometry" />
        </mxCell>
        <mxCell id="zkfFHV4jXpPFQw0GAbJ--20" value="State" style="text;align=left;verticalAlign=top;spacingLeft=4;spacingRight=4;overflow=hidden;rotatable=0;points=[[0,0.5],[1,0.5]];portConstraint=eastwest;rounded=0;shadow=0;html=0;" parent="zkfFHV4jXpPFQw0GAbJ--17" vertex="1">
          <mxGeometry y="78" width="160" height="26" as="geometry" />
        </mxCell>
        <mxCell id="zkfFHV4jXpPFQw0GAbJ--21" value="Postal Code" style="text;align=left;verticalAlign=top;spacingLeft=4;spacingRight=4;overflow=hidden;rotatable=0;points=[[0,0.5],[1,0.5]];portConstraint=eastwest;rounded=0;shadow=0;html=0;" parent="zkfFHV4jXpPFQw0GAbJ--17" vertex="1">
          <mxGeometry y="104" width="160" height="26" as="geometry" />
        </mxCell>
        <mxCell id="zkfFHV4jXpPFQw0GAbJ--22" value="Country" style="text;align=left;verticalAlign=top;spacingLeft=4;spacingRight=4;overflow=hidden;rotatable=0;points=[[0,0.5],[1,0.5]];portConstraint=eastwest;rounded=0;shadow=0;html=0;" parent="zkfFHV4jXpPFQw0GAbJ--17" vertex="1">
          <mxGeometry y="130" width="160" height="26" as="geometry" />
        </mxCell>
        <mxCell id="zkfFHV4jXpPFQw0GAbJ--23" value="" style="line;html=1;strokeWidth=1;align=left;verticalAlign=middle;spacingTop=-1;spacingLeft=3;spacingRight=3;rotatable=0;labelPosition=right;points=[];portConstraint=eastwest;" parent="zkfFHV4jXpPFQw0GAbJ--17" vertex="1">
          <mxGeometry y="156" width="160" height="8" as="geometry" />
        </mxCell>
        <mxCell id="zkfFHV4jXpPFQw0GAbJ--24" value="Validate" style="text;align=left;verticalAlign=top;spacingLeft=4;spacingRight=4;overflow=hidden;rotatable=0;points=[[0,0.5],[1,0.5]];portConstraint=eastwest;" parent="zkfFHV4jXpPFQw0GAbJ--17" vertex="1">
          <mxGeometry y="164" width="160" height="26" as="geometry" />
        </mxCell>
        <mxCell id="zkfFHV4jXpPFQw0GAbJ--25" value="Output As Label" style="text;align=left;verticalAlign=top;spacingLeft=4;spacingRight=4;overflow=hidden;rotatable=0;points=[[0,0.5],[1,0.5]];portConstraint=eastwest;" parent="zkfFHV4jXpPFQw0GAbJ--17" vertex="1">
          <mxGeometry y="190" width="160" height="26" as="geometry" />
        </mxCell>
        <mxCell id="zkfFHV4jXpPFQw0GAbJ--26" value="" style="endArrow=open;shadow=0;strokeWidth=1;rounded=0;curved=0;endFill=1;edgeStyle=elbowEdgeStyle;elbow=vertical;" parent="WIyWlLk6GJQsqaUBKTNV-1" source="zkfFHV4jXpPFQw0GAbJ--0" target="zkfFHV4jXpPFQw0GAbJ--17" edge="1">
          <mxGeometry x="0.5" y="41" relative="1" as="geometry">
            <mxPoint x="380" y="192" as="sourcePoint" />
            <mxPoint x="540" y="192" as="targetPoint" />
            <mxPoint x="-40" y="32" as="offset" />
          </mxGeometry>
        </mxCell>
        <mxCell id="zkfFHV4jXpPFQw0GAbJ--27" value="0..1" style="resizable=0;align=left;verticalAlign=bottom;labelBackgroundColor=none;fontSize=12;" parent="zkfFHV4jXpPFQw0GAbJ--26" connectable="0" vertex="1">
          <mxGeometry x="-1" relative="1" as="geometry">
            <mxPoint y="4" as="offset" />
          </mxGeometry>
        </mxCell>
        <mxCell id="zkfFHV4jXpPFQw0GAbJ--28" value="1" style="resizable=0;align=right;verticalAlign=bottom;labelBackgroundColor=none;fontSize=12;" parent="zkfFHV4jXpPFQw0GAbJ--26" connectable="0" vertex="1">
          <mxGeometry x="1" relative="1" as="geometry">
            <mxPoint x="-7" y="4" as="offset" />
          </mxGeometry>
        </mxCell>
        <mxCell id="zkfFHV4jXpPFQw0GAbJ--29" value="lives at" style="text;html=1;resizable=0;points=[];;align=center;verticalAlign=middle;labelBackgroundColor=none;rounded=0;shadow=0;strokeWidth=1;fontSize=12;" parent="zkfFHV4jXpPFQw0GAbJ--26" vertex="1" connectable="0">
          <mxGeometry x="0.5" y="49" relative="1" as="geometry">
            <mxPoint x="-38" y="40" as="offset" />
          </mxGeometry>
        </mxCell>
        <UserObject label="" plantUmlData="{&#xa;  &quot;data&quot;: &quot;@startuml\n&#39; Define classes for the Model layer\nclass Patient {\n    +int id\n    +string name\n    +string email\n    +string password\n    +date dateOfBirth\n    +string phoneNumber\n    +save() : void\n    +update() : void\n    +delete() : void\n    +findById(int id) : Patient\n    +findAll() : array&lt;Patient&gt;\n}\n\nclass Doctor {\n    +int id\n    +string name\n    +string email\n    +string password\n    +string specialization\n    +save() : void\n    +update() : void\n    +delete() : void\n    +findById(int id) : Doctor\n    +findAll() : array&lt;Doctor&gt;\n}\n\nclass Appointment {\n    +int id\n    +int patientId\n    +int doctorId\n    +datetime appointmentDate\n    +string status\n    +save() : void\n    +update() : void\n    +delete() : void\n    +findById(int id) : Appointment\n    +findAll() : array&lt;Appointment&gt;\n}\n\n&#39; Define relationships between Model classes\nPatient \&quot;1\&quot; -- \&quot;0..*\&quot; Appointment : has &gt;\nDoctor \&quot;1\&quot; -- \&quot;0..*\&quot; Appointment : has &gt;\n\n&#39; Define classes for the Controller layer\nclass PatientController {\n    +register(Patient patient) : void\n    +login(string email, string password) : bool\n    +viewProfile(int patientId) : Patient\n    +updateProfile(Patient patient) : void\n    +bookAppointment(Appointment appointment) : void\n    +viewAppointments(int patientId) : array&lt;Appointment&gt;\n}\n\nclass DoctorController {\n    +register(Doctor doctor) : void\n    +login(string email, string password) : bool\n    +viewProfile(int doctorId) : Doctor\n    +updateProfile(Doctor doctor) : void\n    +viewAppointments(int doctorId) : array&lt;Appointment&gt;\n    +confirmAppointment(int appointmentId) : void\n    +cancelAppointment(int appointmentId) : void\n}\n\nclass AdminController {\n    +manageUsers() : array&lt;User&gt;\n    +manageAppointments() : array&lt;Appointment&gt;\n    +viewStatistics() : array&lt;Statistic&gt;\n}\n\n&#39; Define classes for the View layer\nclass PatientView {\n    +renderProfile(Patient patient) : void\n    +renderAppointments(array&lt;Appointment&gt; appointments) : void\n    +renderRegistrationForm() : void\n    +renderLoginForm() : void\n}\n\nclass DoctorView {\n    +renderProfile(Doctor doctor) : void\n    +renderAppointments(array&lt;Appointment&gt; appointments) : void\n    +renderRegistrationForm() : void\n    +renderLoginForm() : void\n}\n\nclass AdminView {\n    +renderUserList(array&lt;User&gt; users) : void\n    +renderAppointmentList(array&lt;Appointment&gt; appointments) : void\n    +renderStatistics(array&lt;Statistic&gt; statistics) : void\n}\n\n&#39; Define relationships between Controller and View classes\nPatientController --&gt; PatientView : uses &gt;\nDoctorController --&gt; DoctorView : uses &gt;\nAdminController --&gt; AdminView : uses &gt;\n\n&#39; Define utility classes\nclass Database {\n    +getConnection() : PDO\n    +executeQuery(string query, array params) : array\n    +closeConnection() : void\n}\n\nclass Router {\n    +addRoute(string route, string controllerMethod) : void\n    +dispatch(string url) : void\n}\n\nclass SessionManager {\n    +startSession() : void\n    +destroySession() : void\n    +set(string key, mixed value) : void\n    +get(string key) : mixed\n    +has(string key) : bool\n}\n\n&#39; Define relationships between utility classes and other layers\nDatabase &lt;.. Patient : uses\nDatabase &lt;.. Doctor : uses\nDatabase &lt;.. Appointment : uses\nRouter &lt;.. PatientController : routes to\nRouter &lt;.. DoctorController : routes to\nRouter &lt;.. AdminController : routes to\nSessionManager &lt;.. PatientController : manages\nSessionManager &lt;.. DoctorController : manages\nSessionManager &lt;.. AdminController : manages\n\n@enduml&quot;,&#xa;  &quot;format&quot;: &quot;svg&quot;&#xa;}" id="yt2m1S8VddobNDztL1Zb-0">
          <mxCell style="shape=image;noLabel=1;verticalAlign=top;aspect=fixed;imageAspect=0;image=data:image/svg+xml,PD94bWwgdmVyc2lvbj0iMS4wIiBlbmNvZGluZz0idXMtYXNjaWkiIHN0YW5kYWxvbmU9Im5vIj8+PHN2ZyB4bWxucz0iaHR0cDovL3d3dy53My5vcmcvMjAwMC9zdmciIHhtbG5zOnhsaW5rPSJodHRwOi8vd3d3LnczLm9yZy8xOTk5L3hsaW5rIiBjb250ZW50U3R5bGVUeXBlPSJ0ZXh0L2NzcyIgaGVpZ2h0PSI2OTdweCIgcHJlc2VydmVBc3BlY3RSYXRpbz0ibm9uZSIgc3R5bGU9IndpZHRoOjE5MThweDtoZWlnaHQ6Njk3cHg7YmFja2dyb3VuZDojRkZGRkZGOyIgdmVyc2lvbj0iMS4xIiB2aWV3Qm94PSIwIDAgMTkxOCA2OTciIHdpZHRoPSIxOTE4cHgiIHpvb21BbmRQYW49Im1hZ25pZnkiPjxkZWZzLz48Zz48IS0tY2xhc3MgUGF0aWVudC0tPjxnIGlkPSJlbGVtX1BhdGllbnQiPjxyZWN0IGNvZGVMaW5lPSIyIiBmaWxsPSIjRjFGMUYxIiBoZWlnaHQ9IjIxMi44MjgxIiBpZD0iUGF0aWVudCIgcng9IjIuNSIgcnk9IjIuNSIgc3R5bGU9InN0cm9rZTojMTgxODE4O3N0cm9rZS13aWR0aDowLjU7IiB3aWR0aD0iMjEwIiB4PSI3IiB5PSIyMDUiLz48ZWxsaXBzZSBjeD0iODMuMjUiIGN5PSIyMjEiIGZpbGw9IiNBREQxQjIiIHJ4PSIxMSIgcnk9IjExIiBzdHlsZT0ic3Ryb2tlOiMxODE4MTg7c3Ryb2tlLXdpZHRoOjEuMDsiLz48cGF0aCBkPSJNODAuODc1LDIyNS4yNSBMODAuODc1LDIyNyBMODUuODEyNSwyMjcgTDg1LjgxMjUsMjI1LjI1IEw4MC44NzUsMjI1LjI1IFogTTgxLjU2MjUsMjI1LjkzNzUgUTgxLjU2MjUsMjI1LjkzNzUgODEuNTYyNSwyMTYuNzUgTDc5LjgxMjUsMjE2Ljc1IFE3OS44MTI1LDIxNi43NSA3OS44MTI1LDIyNS45Mzc1IEw4MS41NjI1LDIyNS45Mzc1IFogTTg1LjEyNSwyMjUuOTM3NSBMODYuODc1LDIyNS45Mzc1IFE4Ni44NzUsMjI1LjkzNzUgODYuODc1LDIyMy4xMjUgTDg1LjEyNSwyMjMuMTI1IFE4NS4xMjUsMjIzLjEyNSA4NS4xMjUsMjI1LjkzNzUgWiBNODUuMTI1LDIxNi43NSBRODUuMTI1LDIxNi43NSA4NS4xMjUsMjE5LjU2MjUgTDg2Ljg3NSwyMTkuNTYyNSBRODYuODc1LDIxOS41NjI1IDg2Ljg3NSwyMTYuNzUgTDg1LjEyNSwyMTYuNzUgWiBNODAuODc1LDIxNy40Mzc1IEw4NS44MTI1LDIxNy40Mzc1IEw4NS44MTI1LDIxNS42ODc1IEw4MC44NzUsMjE1LjY4NzUgTDgwLjg3NSwyMTcuNDM3NSBaICIgZmlsbD0iIzAwMDAwMCIvPjx0ZXh0IGZpbGw9IiMwMDAwMDAiIGZvbnQtZmFtaWx5PSJzYW5zLXNlcmlmIiBmb250LXNpemU9IjE0IiBsZW5ndGhBZGp1c3Q9InNwYWNpbmciIHRleHRMZW5ndGg9IjQ5IiB4PSIxMDMuNzUiIHk9IjIyNi43NDIyIj5QYXRpZW50PC90ZXh0PjxsaW5lIHN0eWxlPSJzdHJva2U6IzE4MTgxODtzdHJva2Utd2lkdGg6MC41OyIgeDE9IjgiIHgyPSIyMTYiIHkxPSIyMzciIHkyPSIyMzciLz48ZWxsaXBzZSBjeD0iMTgiIGN5PSIyNDkuOTkyMiIgZmlsbD0ibm9uZSIgcng9IjMiIHJ5PSIzIiBzdHlsZT0ic3Ryb2tlOiMwMzgwNDg7c3Ryb2tlLXdpZHRoOjEuMDsiLz48dGV4dCBmaWxsPSIjMDAwMDAwIiBmb250LWZhbWlseT0ic2Fucy1zZXJpZiIgZm9udC1zaXplPSIxNCIgbGVuZ3RoQWRqdXN0PSJzcGFjaW5nIiB0ZXh0TGVuZ3RoPSI0MiIgeD0iMjciIHk9IjI1NC4yMzQ0Ij5pbnQgaWQ8L3RleHQ+PGVsbGlwc2UgY3g9IjE4IiBjeT0iMjY0Ljk3NjYiIGZpbGw9Im5vbmUiIHJ4PSIzIiByeT0iMyIgc3R5bGU9InN0cm9rZTojMDM4MDQ4O3N0cm9rZS13aWR0aDoxLjA7Ii8+PHRleHQgZmlsbD0iIzAwMDAwMCIgZm9udC1mYW1pbHk9InNhbnMtc2VyaWYiIGZvbnQtc2l6ZT0iMTQiIGxlbmd0aEFkanVzdD0ic3BhY2luZyIgdGV4dExlbmd0aD0iNzgiIHg9IjI3IiB5PSIyNjkuMjE4OCI+c3RyaW5nIG5hbWU8L3RleHQ+PGVsbGlwc2UgY3g9IjE4IiBjeT0iMjc5Ljk2MDkiIGZpbGw9Im5vbmUiIHJ4PSIzIiByeT0iMyIgc3R5bGU9InN0cm9rZTojMDM4MDQ4O3N0cm9rZS13aWR0aDoxLjA7Ii8+PHRleHQgZmlsbD0iIzAwMDAwMCIgZm9udC1mYW1pbHk9InNhbnMtc2VyaWYiIGZvbnQtc2l6ZT0iMTQiIGxlbmd0aEFkanVzdD0ic3BhY2luZyIgdGV4dExlbmd0aD0iODUiIHg9IjI3IiB5PSIyODQuMjAzMSI+c3RyaW5nIGVtYWlsPC90ZXh0PjxlbGxpcHNlIGN4PSIxOCIgY3k9IjI5NC45NDUzIiBmaWxsPSJub25lIiByeD0iMyIgcnk9IjMiIHN0eWxlPSJzdHJva2U6IzAzODA0ODtzdHJva2Utd2lkdGg6MS4wOyIvPjx0ZXh0IGZpbGw9IiMwMDAwMDAiIGZvbnQtZmFtaWx5PSJzYW5zLXNlcmlmIiBmb250LXNpemU9IjE0IiBsZW5ndGhBZGp1c3Q9InNwYWNpbmciIHRleHRMZW5ndGg9IjEwNiIgeD0iMjciIHk9IjI5OS4xODc1Ij5zdHJpbmcgcGFzc3dvcmQ8L3RleHQ+PGVsbGlwc2UgY3g9IjE4IiBjeT0iMzA5LjkyOTciIGZpbGw9Im5vbmUiIHJ4PSIzIiByeT0iMyIgc3R5bGU9InN0cm9rZTojMDM4MDQ4O3N0cm9rZS13aWR0aDoxLjA7Ii8+PHRleHQgZmlsbD0iIzAwMDAwMCIgZm9udC1mYW1pbHk9InNhbnMtc2VyaWYiIGZvbnQtc2l6ZT0iMTQiIGxlbmd0aEFkanVzdD0ic3BhY2luZyIgdGV4dExlbmd0aD0iMTEyIiB4PSIyNyIgeT0iMzE0LjE3MTkiPmRhdGUgZGF0ZU9mQmlydGg8L3RleHQ+PGVsbGlwc2UgY3g9IjE4IiBjeT0iMzI0LjkxNDEiIGZpbGw9Im5vbmUiIHJ4PSIzIiByeT0iMyIgc3R5bGU9InN0cm9rZTojMDM4MDQ4O3N0cm9rZS13aWR0aDoxLjA7Ii8+PHRleHQgZmlsbD0iIzAwMDAwMCIgZm9udC1mYW1pbHk9InNhbnMtc2VyaWYiIGZvbnQtc2l6ZT0iMTQiIGxlbmd0aEFkanVzdD0ic3BhY2luZyIgdGV4dExlbmd0aD0iMTI3IiB4PSIyNyIgeT0iMzI5LjE1NjMiPnN0cmluZyBwaG9uZU51bWJlcjwvdGV4dD48bGluZSBzdHlsZT0ic3Ryb2tlOiMxODE4MTg7c3Ryb2tlLXdpZHRoOjAuNTsiIHgxPSI4IiB4Mj0iMjE2IiB5MT0iMzM0LjkwNjMiIHkyPSIzMzQuOTA2MyIvPjxlbGxpcHNlIGN4PSIxOCIgY3k9IjM0Ny44OTg0IiBmaWxsPSIjODRCRTg0IiByeD0iMyIgcnk9IjMiIHN0eWxlPSJzdHJva2U6IzAzODA0ODtzdHJva2Utd2lkdGg6MS4wOyIvPjx0ZXh0IGZpbGw9IiMwMDAwMDAiIGZvbnQtZmFtaWx5PSJzYW5zLXNlcmlmIiBmb250LXNpemU9IjE0IiBsZW5ndGhBZGp1c3Q9InNwYWNpbmciIHRleHRMZW5ndGg9IjkzIiB4PSIyNyIgeT0iMzUyLjE0MDYiPnNhdmUoKSA6IHZvaWQ8L3RleHQ+PGVsbGlwc2UgY3g9IjE4IiBjeT0iMzYyLjg4MjgiIGZpbGw9IiM4NEJFODQiIHJ4PSIzIiByeT0iMyIgc3R5bGU9InN0cm9rZTojMDM4MDQ4O3N0cm9rZS13aWR0aDoxLjA7Ii8+PHRleHQgZmlsbD0iIzAwMDAwMCIgZm9udC1mYW1pbHk9InNhbnMtc2VyaWYiIGZvbnQtc2l6ZT0iMTQiIGxlbmd0aEFkanVzdD0ic3BhY2luZyIgdGV4dExlbmd0aD0iMTA3IiB4PSIyNyIgeT0iMzY3LjEyNSI+dXBkYXRlKCkgOiB2b2lkPC90ZXh0PjxlbGxpcHNlIGN4PSIxOCIgY3k9IjM3Ny44NjcyIiBmaWxsPSIjODRCRTg0IiByeD0iMyIgcnk9IjMiIHN0eWxlPSJzdHJva2U6IzAzODA0ODtzdHJva2Utd2lkdGg6MS4wOyIvPjx0ZXh0IGZpbGw9IiMwMDAwMDAiIGZvbnQtZmFtaWx5PSJzYW5zLXNlcmlmIiBmb250LXNpemU9IjE0IiBsZW5ndGhBZGp1c3Q9InNwYWNpbmciIHRleHRMZW5ndGg9IjEwNyIgeD0iMjciIHk9IjM4Mi4xMDk0Ij5kZWxldGUoKSA6IHZvaWQ8L3RleHQ+PGVsbGlwc2UgY3g9IjE4IiBjeT0iMzkyLjg1MTYiIGZpbGw9IiM4NEJFODQiIHJ4PSIzIiByeT0iMyIgc3R5bGU9InN0cm9rZTojMDM4MDQ4O3N0cm9rZS13aWR0aDoxLjA7Ii8+PHRleHQgZmlsbD0iIzAwMDAwMCIgZm9udC1mYW1pbHk9InNhbnMtc2VyaWYiIGZvbnQtc2l6ZT0iMTQiIGxlbmd0aEFkanVzdD0ic3BhY2luZyIgdGV4dExlbmd0aD0iMTg0IiB4PSIyNyIgeT0iMzk3LjA5MzgiPmZpbmRCeUlkKGludCBpZCkgOiBQYXRpZW50PC90ZXh0PjxlbGxpcHNlIGN4PSIxOCIgY3k9IjQwNy44MzU5IiBmaWxsPSIjODRCRTg0IiByeD0iMyIgcnk9IjMiIHN0eWxlPSJzdHJva2U6IzAzODA0ODtzdHJva2Utd2lkdGg6MS4wOyIvPjx0ZXh0IGZpbGw9IiMwMDAwMDAiIGZvbnQtZmFtaWx5PSJzYW5zLXNlcmlmIiBmb250LXNpemU9IjE0IiBsZW5ndGhBZGp1c3Q9InNwYWNpbmciIHRleHRMZW5ndGg9IjE4NCIgeD0iMjciIHk9IjQxMi4wNzgxIj5maW5kQWxsKCkgOiBhcnJheSZsdDtQYXRpZW50Jmd0OzwvdGV4dD48L2c+PCEtLWNsYXNzIERvY3Rvci0tPjxnIGlkPSJlbGVtX0RvY3RvciI+PHJlY3QgY29kZUxpbmU9IjE2IiBmaWxsPSIjRjFGMUYxIiBoZWlnaHQ9IjE5Ny44NDM4IiBpZD0iRG9jdG9yIiByeD0iMi41IiByeT0iMi41IiBzdHlsZT0ic3Ryb2tlOiMxODE4MTg7c3Ryb2tlLXdpZHRoOjAuNTsiIHdpZHRoPSIyMDMiIHg9IjI1Mi41IiB5PSIyMTIuNSIvPjxlbGxpcHNlIGN4PSIzMjguNzUiIGN5PSIyMjguNSIgZmlsbD0iI0FERDFCMiIgcng9IjExIiByeT0iMTEiIHN0eWxlPSJzdHJva2U6IzE4MTgxODtzdHJva2Utd2lkdGg6MS4wOyIvPjxwYXRoIGQ9Ik0zMjYuMzc1LDIzMi43NSBMMzI2LjM3NSwyMzQuNSBMMzMxLjMxMjUsMjM0LjUgTDMzMS4zMTI1LDIzMi43NSBMMzI2LjM3NSwyMzIuNzUgWiBNMzI3LjA2MjUsMjMzLjQzNzUgUTMyNy4wNjI1LDIzMy40Mzc1IDMyNy4wNjI1LDIyNC4yNSBMMzI1LjMxMjUsMjI0LjI1IFEzMjUuMzEyNSwyMjQuMjUgMzI1LjMxMjUsMjMzLjQzNzUgTDMyNy4wNjI1LDIzMy40Mzc1IFogTTMzMC42MjUsMjMzLjQzNzUgTDMzMi4zNzUsMjMzLjQzNzUgUTMzMi4zNzUsMjMzLjQzNzUgMzMyLjM3NSwyMzAuNjI1IEwzMzAuNjI1LDIzMC42MjUgUTMzMC42MjUsMjMwLjYyNSAzMzAuNjI1LDIzMy40Mzc1IFogTTMzMC42MjUsMjI0LjI1IFEzMzAuNjI1LDIyNC4yNSAzMzAuNjI1LDIyNy4wNjI1IEwzMzIuMzc1LDIyNy4wNjI1IFEzMzIuMzc1LDIyNy4wNjI1IDMzMi4zNzUsMjI0LjI1IEwzMzAuNjI1LDIyNC4yNSBaIE0zMjYuMzc1LDIyNC45Mzc1IEwzMzEuMzEyNSwyMjQuOTM3NSBMMzMxLjMxMjUsMjIzLjE4NzUgTDMyNi4zNzUsMjIzLjE4NzUgTDMyNi4zNzUsMjI0LjkzNzUgWiAiIGZpbGw9IiMwMDAwMDAiLz48dGV4dCBmaWxsPSIjMDAwMDAwIiBmb250LWZhbWlseT0ic2Fucy1zZXJpZiIgZm9udC1zaXplPSIxNCIgbGVuZ3RoQWRqdXN0PSJzcGFjaW5nIiB0ZXh0TGVuZ3RoPSI0MiIgeD0iMzQ5LjI1IiB5PSIyMzQuMjQyMiI+RG9jdG9yPC90ZXh0PjxsaW5lIHN0eWxlPSJzdHJva2U6IzE4MTgxODtzdHJva2Utd2lkdGg6MC41OyIgeDE9IjI1My41IiB4Mj0iNDU0LjUiIHkxPSIyNDQuNSIgeTI9IjI0NC41Ii8+PGVsbGlwc2UgY3g9IjI2My41IiBjeT0iMjU3LjQ5MjIiIGZpbGw9Im5vbmUiIHJ4PSIzIiByeT0iMyIgc3R5bGU9InN0cm9rZTojMDM4MDQ4O3N0cm9rZS13aWR0aDoxLjA7Ii8+PHRleHQgZmlsbD0iIzAwMDAwMCIgZm9udC1mYW1pbHk9InNhbnMtc2VyaWYiIGZvbnQtc2l6ZT0iMTQiIGxlbmd0aEFkanVzdD0ic3BhY2luZyIgdGV4dExlbmd0aD0iNDIiIHg9IjI3Mi41IiB5PSIyNjEuNzM0NCI+aW50IGlkPC90ZXh0PjxlbGxpcHNlIGN4PSIyNjMuNSIgY3k9IjI3Mi40NzY2IiBmaWxsPSJub25lIiByeD0iMyIgcnk9IjMiIHN0eWxlPSJzdHJva2U6IzAzODA0ODtzdHJva2Utd2lkdGg6MS4wOyIvPjx0ZXh0IGZpbGw9IiMwMDAwMDAiIGZvbnQtZmFtaWx5PSJzYW5zLXNlcmlmIiBmb250LXNpemU9IjE0IiBsZW5ndGhBZGp1c3Q9InNwYWNpbmciIHRleHRMZW5ndGg9Ijc4IiB4PSIyNzIuNSIgeT0iMjc2LjcxODgiPnN0cmluZyBuYW1lPC90ZXh0PjxlbGxpcHNlIGN4PSIyNjMuNSIgY3k9IjI4Ny40NjA5IiBmaWxsPSJub25lIiByeD0iMyIgcnk9IjMiIHN0eWxlPSJzdHJva2U6IzAzODA0ODtzdHJva2Utd2lkdGg6MS4wOyIvPjx0ZXh0IGZpbGw9IiMwMDAwMDAiIGZvbnQtZmFtaWx5PSJzYW5zLXNlcmlmIiBmb250LXNpemU9IjE0IiBsZW5ndGhBZGp1c3Q9InNwYWNpbmciIHRleHRMZW5ndGg9Ijg1IiB4PSIyNzIuNSIgeT0iMjkxLjcwMzEiPnN0cmluZyBlbWFpbDwvdGV4dD48ZWxsaXBzZSBjeD0iMjYzLjUiIGN5PSIzMDIuNDQ1MyIgZmlsbD0ibm9uZSIgcng9IjMiIHJ5PSIzIiBzdHlsZT0ic3Ryb2tlOiMwMzgwNDg7c3Ryb2tlLXdpZHRoOjEuMDsiLz48dGV4dCBmaWxsPSIjMDAwMDAwIiBmb250LWZhbWlseT0ic2Fucy1zZXJpZiIgZm9udC1zaXplPSIxNCIgbGVuZ3RoQWRqdXN0PSJzcGFjaW5nIiB0ZXh0TGVuZ3RoPSIxMDYiIHg9IjI3Mi41IiB5PSIzMDYuNjg3NSI+c3RyaW5nIHBhc3N3b3JkPC90ZXh0PjxlbGxpcHNlIGN4PSIyNjMuNSIgY3k9IjMxNy40Mjk3IiBmaWxsPSJub25lIiByeD0iMyIgcnk9IjMiIHN0eWxlPSJzdHJva2U6IzAzODA0ODtzdHJva2Utd2lkdGg6MS4wOyIvPjx0ZXh0IGZpbGw9IiMwMDAwMDAiIGZvbnQtZmFtaWx5PSJzYW5zLXNlcmlmIiBmb250LXNpemU9IjE0IiBsZW5ndGhBZGp1c3Q9InNwYWNpbmciIHRleHRMZW5ndGg9IjE0NyIgeD0iMjcyLjUiIHk9IjMyMS42NzE5Ij5zdHJpbmcgc3BlY2lhbGl6YXRpb248L3RleHQ+PGxpbmUgc3R5bGU9InN0cm9rZTojMTgxODE4O3N0cm9rZS13aWR0aDowLjU7IiB4MT0iMjUzLjUiIHgyPSI0NTQuNSIgeTE9IjMyNy40MjE5IiB5Mj0iMzI3LjQyMTkiLz48ZWxsaXBzZSBjeD0iMjYzLjUiIGN5PSIzNDAuNDE0MSIgZmlsbD0iIzg0QkU4NCIgcng9IjMiIHJ5PSIzIiBzdHlsZT0ic3Ryb2tlOiMwMzgwNDg7c3Ryb2tlLXdpZHRoOjEuMDsiLz48dGV4dCBmaWxsPSIjMDAwMDAwIiBmb250LWZhbWlseT0ic2Fucy1zZXJpZiIgZm9udC1zaXplPSIxNCIgbGVuZ3RoQWRqdXN0PSJzcGFjaW5nIiB0ZXh0TGVuZ3RoPSI5MyIgeD0iMjcyLjUiIHk9IjM0NC42NTYzIj5zYXZlKCkgOiB2b2lkPC90ZXh0PjxlbGxpcHNlIGN4PSIyNjMuNSIgY3k9IjM1NS4zOTg0IiBmaWxsPSIjODRCRTg0IiByeD0iMyIgcnk9IjMiIHN0eWxlPSJzdHJva2U6IzAzODA0ODtzdHJva2Utd2lkdGg6MS4wOyIvPjx0ZXh0IGZpbGw9IiMwMDAwMDAiIGZvbnQtZmFtaWx5PSJzYW5zLXNlcmlmIiBmb250LXNpemU9IjE0IiBsZW5ndGhBZGp1c3Q9InNwYWNpbmciIHRleHRMZW5ndGg9IjEwNyIgeD0iMjcyLjUiIHk9IjM1OS42NDA2Ij51cGRhdGUoKSA6IHZvaWQ8L3RleHQ+PGVsbGlwc2UgY3g9IjI2My41IiBjeT0iMzcwLjM4MjgiIGZpbGw9IiM4NEJFODQiIHJ4PSIzIiByeT0iMyIgc3R5bGU9InN0cm9rZTojMDM4MDQ4O3N0cm9rZS13aWR0aDoxLjA7Ii8+PHRleHQgZmlsbD0iIzAwMDAwMCIgZm9udC1mYW1pbHk9InNhbnMtc2VyaWYiIGZvbnQtc2l6ZT0iMTQiIGxlbmd0aEFkanVzdD0ic3BhY2luZyIgdGV4dExlbmd0aD0iMTA3IiB4PSIyNzIuNSIgeT0iMzc0LjYyNSI+ZGVsZXRlKCkgOiB2b2lkPC90ZXh0PjxlbGxpcHNlIGN4PSIyNjMuNSIgY3k9IjM4NS4zNjcyIiBmaWxsPSIjODRCRTg0IiByeD0iMyIgcnk9IjMiIHN0eWxlPSJzdHJva2U6IzAzODA0ODtzdHJva2Utd2lkdGg6MS4wOyIvPjx0ZXh0IGZpbGw9IiMwMDAwMDAiIGZvbnQtZmFtaWx5PSJzYW5zLXNlcmlmIiBmb250LXNpemU9IjE0IiBsZW5ndGhBZGp1c3Q9InNwYWNpbmciIHRleHRMZW5ndGg9IjE3NyIgeD0iMjcyLjUiIHk9IjM4OS42MDk0Ij5maW5kQnlJZChpbnQgaWQpIDogRG9jdG9yPC90ZXh0PjxlbGxpcHNlIGN4PSIyNjMuNSIgY3k9IjQwMC4zNTE2IiBmaWxsPSIjODRCRTg0IiByeD0iMyIgcnk9IjMiIHN0eWxlPSJzdHJva2U6IzAzODA0ODtzdHJva2Utd2lkdGg6MS4wOyIvPjx0ZXh0IGZpbGw9IiMwMDAwMDAiIGZvbnQtZmFtaWx5PSJzYW5zLXNlcmlmIiBmb250LXNpemU9IjE0IiBsZW5ndGhBZGp1c3Q9InNwYWNpbmciIHRleHRMZW5ndGg9IjE3NyIgeD0iMjcyLjUiIHk9IjQwNC41OTM4Ij5maW5kQWxsKCkgOiBhcnJheSZsdDtEb2N0b3ImZ3Q7PC90ZXh0PjwvZz48IS0tY2xhc3MgQXBwb2ludG1lbnQtLT48ZyBpZD0iZWxlbV9BcHBvaW50bWVudCI+PHJlY3QgY29kZUxpbmU9IjI5IiBmaWxsPSIjRjFGMUYxIiBoZWlnaHQ9IjE5Ny44NDM4IiBpZD0iQXBwb2ludG1lbnQiIHJ4PSIyLjUiIHJ5PSIyLjUiIHN0eWxlPSJzdHJva2U6IzE4MTgxODtzdHJva2Utd2lkdGg6MC41OyIgd2lkdGg9IjIzOSIgeD0iMjM0LjUiIHk9IjQ5MyIvPjxlbGxpcHNlIGN4PSIzMTAuNzUiIGN5PSI1MDkiIGZpbGw9IiNBREQxQjIiIHJ4PSIxMSIgcnk9IjExIiBzdHlsZT0ic3Ryb2tlOiMxODE4MTg7c3Ryb2tlLXdpZHRoOjEuMDsiLz48cGF0aCBkPSJNMzA4LjM3NSw1MTMuMjUgTDMwOC4zNzUsNTE1IEwzMTMuMzEyNSw1MTUgTDMxMy4zMTI1LDUxMy4yNSBMMzA4LjM3NSw1MTMuMjUgWiBNMzA5LjA2MjUsNTEzLjkzNzUgUTMwOS4wNjI1LDUxMy45Mzc1IDMwOS4wNjI1LDUwNC43NSBMMzA3LjMxMjUsNTA0Ljc1IFEzMDcuMzEyNSw1MDQuNzUgMzA3LjMxMjUsNTEzLjkzNzUgTDMwOS4wNjI1LDUxMy45Mzc1IFogTTMxMi42MjUsNTEzLjkzNzUgTDMxNC4zNzUsNTEzLjkzNzUgUTMxNC4zNzUsNTEzLjkzNzUgMzE0LjM3NSw1MTEuMTI1IEwzMTIuNjI1LDUxMS4xMjUgUTMxMi42MjUsNTExLjEyNSAzMTIuNjI1LDUxMy45Mzc1IFogTTMxMi42MjUsNTA0Ljc1IFEzMTIuNjI1LDUwNC43NSAzMTIuNjI1LDUwNy41NjI1IEwzMTQuMzc1LDUwNy41NjI1IFEzMTQuMzc1LDUwNy41NjI1IDMxNC4zNzUsNTA0Ljc1IEwzMTIuNjI1LDUwNC43NSBaIE0zMDguMzc1LDUwNS40Mzc1IEwzMTMuMzEyNSw1MDUuNDM3NSBMMzEzLjMxMjUsNTAzLjY4NzUgTDMwOC4zNzUsNTAzLjY4NzUgTDMwOC4zNzUsNTA1LjQzNzUgWiAiIGZpbGw9IiMwMDAwMDAiLz48dGV4dCBmaWxsPSIjMDAwMDAwIiBmb250LWZhbWlseT0ic2Fucy1zZXJpZiIgZm9udC1zaXplPSIxNCIgbGVuZ3RoQWRqdXN0PSJzcGFjaW5nIiB0ZXh0TGVuZ3RoPSI3OCIgeD0iMzMxLjI1IiB5PSI1MTQuNzQyMiI+QXBwb2ludG1lbnQ8L3RleHQ+PGxpbmUgc3R5bGU9InN0cm9rZTojMTgxODE4O3N0cm9rZS13aWR0aDowLjU7IiB4MT0iMjM1LjUiIHgyPSI0NzIuNSIgeTE9IjUyNSIgeTI9IjUyNSIvPjxlbGxpcHNlIGN4PSIyNDUuNSIgY3k9IjUzNy45OTIyIiBmaWxsPSJub25lIiByeD0iMyIgcnk9IjMiIHN0eWxlPSJzdHJva2U6IzAzODA0ODtzdHJva2Utd2lkdGg6MS4wOyIvPjx0ZXh0IGZpbGw9IiMwMDAwMDAiIGZvbnQtZmFtaWx5PSJzYW5zLXNlcmlmIiBmb250LXNpemU9IjE0IiBsZW5ndGhBZGp1c3Q9InNwYWNpbmciIHRleHRMZW5ndGg9IjQyIiB4PSIyNTQuNSIgeT0iNTQyLjIzNDQiPmludCBpZDwvdGV4dD48ZWxsaXBzZSBjeD0iMjQ1LjUiIGN5PSI1NTIuOTc2NiIgZmlsbD0ibm9uZSIgcng9IjMiIHJ5PSIzIiBzdHlsZT0ic3Ryb2tlOiMwMzgwNDg7c3Ryb2tlLXdpZHRoOjEuMDsiLz48dGV4dCBmaWxsPSIjMDAwMDAwIiBmb250LWZhbWlseT0ic2Fucy1zZXJpZiIgZm9udC1zaXplPSIxNCIgbGVuZ3RoQWRqdXN0PSJzcGFjaW5nIiB0ZXh0TGVuZ3RoPSI5MSIgeD0iMjU0LjUiIHk9IjU1Ny4yMTg4Ij5pbnQgcGF0aWVudElkPC90ZXh0PjxlbGxpcHNlIGN4PSIyNDUuNSIgY3k9IjU2Ny45NjA5IiBmaWxsPSJub25lIiByeD0iMyIgcnk9IjMiIHN0eWxlPSJzdHJva2U6IzAzODA0ODtzdHJva2Utd2lkdGg6MS4wOyIvPjx0ZXh0IGZpbGw9IiMwMDAwMDAiIGZvbnQtZmFtaWx5PSJzYW5zLXNlcmlmIiBmb250LXNpemU9IjE0IiBsZW5ndGhBZGp1c3Q9InNwYWNpbmciIHRleHRMZW5ndGg9Ijg0IiB4PSIyNTQuNSIgeT0iNTcyLjIwMzEiPmludCBkb2N0b3JJZDwvdGV4dD48ZWxsaXBzZSBjeD0iMjQ1LjUiIGN5PSI1ODIuOTQ1MyIgZmlsbD0ibm9uZSIgcng9IjMiIHJ5PSIzIiBzdHlsZT0ic3Ryb2tlOiMwMzgwNDg7c3Ryb2tlLXdpZHRoOjEuMDsiLz48dGV4dCBmaWxsPSIjMDAwMDAwIiBmb250LWZhbWlseT0ic2Fucy1zZXJpZiIgZm9udC1zaXplPSIxNCIgbGVuZ3RoQWRqdXN0PSJzcGFjaW5nIiB0ZXh0TGVuZ3RoPSIxNzAiIHg9IjI1NC41IiB5PSI1ODcuMTg3NSI+ZGF0ZXRpbWUgYXBwb2ludG1lbnREYXRlPC90ZXh0PjxlbGxpcHNlIGN4PSIyNDUuNSIgY3k9IjU5Ny45Mjk3IiBmaWxsPSJub25lIiByeD0iMyIgcnk9IjMiIHN0eWxlPSJzdHJva2U6IzAzODA0ODtzdHJva2Utd2lkdGg6MS4wOyIvPjx0ZXh0IGZpbGw9IiMwMDAwMDAiIGZvbnQtZmFtaWx5PSJzYW5zLXNlcmlmIiBmb250LXNpemU9IjE0IiBsZW5ndGhBZGp1c3Q9InNwYWNpbmciIHRleHRMZW5ndGg9IjkxIiB4PSIyNTQuNSIgeT0iNjAyLjE3MTkiPnN0cmluZyBzdGF0dXM8L3RleHQ+PGxpbmUgc3R5bGU9InN0cm9rZTojMTgxODE4O3N0cm9rZS13aWR0aDowLjU7IiB4MT0iMjM1LjUiIHgyPSI0NzIuNSIgeTE9IjYwNy45MjE5IiB5Mj0iNjA3LjkyMTkiLz48ZWxsaXBzZSBjeD0iMjQ1LjUiIGN5PSI2MjAuOTE0MSIgZmlsbD0iIzg0QkU4NCIgcng9IjMiIHJ5PSIzIiBzdHlsZT0ic3Ryb2tlOiMwMzgwNDg7c3Ryb2tlLXdpZHRoOjEuMDsiLz48dGV4dCBmaWxsPSIjMDAwMDAwIiBmb250LWZhbWlseT0ic2Fucy1zZXJpZiIgZm9udC1zaXplPSIxNCIgbGVuZ3RoQWRqdXN0PSJzcGFjaW5nIiB0ZXh0TGVuZ3RoPSI5MyIgeD0iMjU0LjUiIHk9IjYyNS4xNTYzIj5zYXZlKCkgOiB2b2lkPC90ZXh0PjxlbGxpcHNlIGN4PSIyNDUuNSIgY3k9IjYzNS44OTg0IiBmaWxsPSIjODRCRTg0IiByeD0iMyIgcnk9IjMiIHN0eWxlPSJzdHJva2U6IzAzODA0ODtzdHJva2Utd2lkdGg6MS4wOyIvPjx0ZXh0IGZpbGw9IiMwMDAwMDAiIGZvbnQtZmFtaWx5PSJzYW5zLXNlcmlmIiBmb250LXNpemU9IjE0IiBsZW5ndGhBZGp1c3Q9InNwYWNpbmciIHRleHRMZW5ndGg9IjEwNyIgeD0iMjU0LjUiIHk9IjY0MC4xNDA2Ij51cGRhdGUoKSA6IHZvaWQ8L3RleHQ+PGVsbGlwc2UgY3g9IjI0NS41IiBjeT0iNjUwLjg4MjgiIGZpbGw9IiM4NEJFODQiIHJ4PSIzIiByeT0iMyIgc3R5bGU9InN0cm9rZTojMDM4MDQ4O3N0cm9rZS13aWR0aDoxLjA7Ii8+PHRleHQgZmlsbD0iIzAwMDAwMCIgZm9udC1mYW1pbHk9InNhbnMtc2VyaWYiIGZvbnQtc2l6ZT0iMTQiIGxlbmd0aEFkanVzdD0ic3BhY2luZyIgdGV4dExlbmd0aD0iMTA3IiB4PSIyNTQuNSIgeT0iNjU1LjEyNSI+ZGVsZXRlKCkgOiB2b2lkPC90ZXh0PjxlbGxpcHNlIGN4PSIyNDUuNSIgY3k9IjY2NS44NjcyIiBmaWxsPSIjODRCRTg0IiByeD0iMyIgcnk9IjMiIHN0eWxlPSJzdHJva2U6IzAzODA0ODtzdHJva2Utd2lkdGg6MS4wOyIvPjx0ZXh0IGZpbGw9IiMwMDAwMDAiIGZvbnQtZmFtaWx5PSJzYW5zLXNlcmlmIiBmb250LXNpemU9IjE0IiBsZW5ndGhBZGp1c3Q9InNwYWNpbmciIHRleHRMZW5ndGg9IjIxMyIgeD0iMjU0LjUiIHk9IjY3MC4xMDk0Ij5maW5kQnlJZChpbnQgaWQpIDogQXBwb2ludG1lbnQ8L3RleHQ+PGVsbGlwc2UgY3g9IjI0NS41IiBjeT0iNjgwLjg1MTYiIGZpbGw9IiM4NEJFODQiIHJ4PSIzIiByeT0iMyIgc3R5bGU9InN0cm9rZTojMDM4MDQ4O3N0cm9rZS13aWR0aDoxLjA7Ii8+PHRleHQgZmlsbD0iIzAwMDAwMCIgZm9udC1mYW1pbHk9InNhbnMtc2VyaWYiIGZvbnQtc2l6ZT0iMTQiIGxlbmd0aEFkanVzdD0ic3BhY2luZyIgdGV4dExlbmd0aD0iMjEzIiB4PSIyNTQuNSIgeT0iNjg1LjA5MzgiPmZpbmRBbGwoKSA6IGFycmF5Jmx0O0FwcG9pbnRtZW50Jmd0OzwvdGV4dD48L2c+PCEtLWNsYXNzIFBhdGllbnRDb250cm9sbGVyLS0+PGcgaWQ9ImVsZW1fUGF0aWVudENvbnRyb2xsZXIiPjxyZWN0IGNvZGVMaW5lPSI0NyIgZmlsbD0iI0YxRjFGMSIgaGVpZ2h0PSIxMzcuOTA2MyIgaWQ9IlBhdGllbnRDb250cm9sbGVyIiByeD0iMi41IiByeT0iMi41IiBzdHlsZT0ic3Ryb2tlOiMxODE4MTg7c3Ryb2tlLXdpZHRoOjAuNTsiIHdpZHRoPSIzOTUiIHg9IjYyMC41IiB5PSIyNDIuNSIvPjxlbGxpcHNlIGN4PSI3NTQuMjUiIGN5PSIyNTguNSIgZmlsbD0iI0FERDFCMiIgcng9IjExIiByeT0iMTEiIHN0eWxlPSJzdHJva2U6IzE4MTgxODtzdHJva2Utd2lkdGg6MS4wOyIvPjxwYXRoIGQ9Ik03NTEuODc1LDI2Mi43NSBMNzUxLjg3NSwyNjQuNSBMNzU2LjgxMjUsMjY0LjUgTDc1Ni44MTI1LDI2Mi43NSBMNzUxLjg3NSwyNjIuNzUgWiBNNzUyLjU2MjUsMjYzLjQzNzUgUTc1Mi41NjI1LDI2My40Mzc1IDc1Mi41NjI1LDI1NC4yNSBMNzUwLjgxMjUsMjU0LjI1IFE3NTAuODEyNSwyNTQuMjUgNzUwLjgxMjUsMjYzLjQzNzUgTDc1Mi41NjI1LDI2My40Mzc1IFogTTc1Ni4xMjUsMjYzLjQzNzUgTDc1Ny44NzUsMjYzLjQzNzUgUTc1Ny44NzUsMjYzLjQzNzUgNzU3Ljg3NSwyNjAuNjI1IEw3NTYuMTI1LDI2MC42MjUgUTc1Ni4xMjUsMjYwLjYyNSA3NTYuMTI1LDI2My40Mzc1IFogTTc1Ni4xMjUsMjU0LjI1IFE3NTYuMTI1LDI1NC4yNSA3NTYuMTI1LDI1Ny4wNjI1IEw3NTcuODc1LDI1Ny4wNjI1IFE3NTcuODc1LDI1Ny4wNjI1IDc1Ny44NzUsMjU0LjI1IEw3NTYuMTI1LDI1NC4yNSBaIE03NTEuODc1LDI1NC45Mzc1IEw3NTYuODEyNSwyNTQuOTM3NSBMNzU2LjgxMjUsMjUzLjE4NzUgTDc1MS44NzUsMjUzLjE4NzUgTDc1MS44NzUsMjU0LjkzNzUgWiAiIGZpbGw9IiMwMDAwMDAiLz48dGV4dCBmaWxsPSIjMDAwMDAwIiBmb250LWZhbWlseT0ic2Fucy1zZXJpZiIgZm9udC1zaXplPSIxNCIgbGVuZ3RoQWRqdXN0PSJzcGFjaW5nIiB0ZXh0TGVuZ3RoPSIxMTkiIHg9Ijc3NC43NSIgeT0iMjY0LjI0MjIiPlBhdGllbnRDb250cm9sbGVyPC90ZXh0PjxsaW5lIHN0eWxlPSJzdHJva2U6IzE4MTgxODtzdHJva2Utd2lkdGg6MC41OyIgeDE9IjYyMS41IiB4Mj0iMTAxNC41IiB5MT0iMjc0LjUiIHkyPSIyNzQuNSIvPjxsaW5lIHN0eWxlPSJzdHJva2U6IzE4MTgxODtzdHJva2Utd2lkdGg6MC41OyIgeDE9IjYyMS41IiB4Mj0iMTAxNC41IiB5MT0iMjgyLjUiIHkyPSIyODIuNSIvPjxlbGxpcHNlIGN4PSI2MzEuNSIgY3k9IjI5NS40OTIyIiBmaWxsPSIjODRCRTg0IiByeD0iMyIgcnk9IjMiIHN0eWxlPSJzdHJva2U6IzAzODA0ODtzdHJva2Utd2lkdGg6MS4wOyIvPjx0ZXh0IGZpbGw9IiMwMDAwMDAiIGZvbnQtZmFtaWx5PSJzYW5zLXNlcmlmIiBmb250LXNpemU9IjE0IiBsZW5ndGhBZGp1c3Q9InNwYWNpbmciIHRleHRMZW5ndGg9IjIyNiIgeD0iNjQwLjUiIHk9IjI5OS43MzQ0Ij5yZWdpc3RlcihQYXRpZW50IHBhdGllbnQpIDogdm9pZDwvdGV4dD48ZWxsaXBzZSBjeD0iNjMxLjUiIGN5PSIzMTAuNDc2NiIgZmlsbD0iIzg0QkU4NCIgcng9IjMiIHJ5PSIzIiBzdHlsZT0ic3Ryb2tlOiMwMzgwNDg7c3Ryb2tlLXdpZHRoOjEuMDsiLz48dGV4dCBmaWxsPSIjMDAwMDAwIiBmb250LWZhbWlseT0ic2Fucy1zZXJpZiIgZm9udC1zaXplPSIxNCIgbGVuZ3RoQWRqdXN0PSJzcGFjaW5nIiB0ZXh0TGVuZ3RoPSIzMDUiIHg9IjY0MC41IiB5PSIzMTQuNzE4OCI+bG9naW4oc3RyaW5nIGVtYWlsLCBzdHJpbmcgcGFzc3dvcmQpIDogYm9vbDwvdGV4dD48ZWxsaXBzZSBjeD0iNjMxLjUiIGN5PSIzMjUuNDYwOSIgZmlsbD0iIzg0QkU4NCIgcng9IjMiIHJ5PSIzIiBzdHlsZT0ic3Ryb2tlOiMwMzgwNDg7c3Ryb2tlLXdpZHRoOjEuMDsiLz48dGV4dCBmaWxsPSIjMDAwMDAwIiBmb250LWZhbWlseT0ic2Fucy1zZXJpZiIgZm9udC1zaXplPSIxNCIgbGVuZ3RoQWRqdXN0PSJzcGFjaW5nIiB0ZXh0TGVuZ3RoPSIyNTUiIHg9IjY0MC41IiB5PSIzMjkuNzAzMSI+dmlld1Byb2ZpbGUoaW50IHBhdGllbnRJZCkgOiBQYXRpZW50PC90ZXh0PjxlbGxpcHNlIGN4PSI2MzEuNSIgY3k9IjM0MC40NDUzIiBmaWxsPSIjODRCRTg0IiByeD0iMyIgcnk9IjMiIHN0eWxlPSJzdHJva2U6IzAzODA0ODtzdHJva2Utd2lkdGg6MS4wOyIvPjx0ZXh0IGZpbGw9IiMwMDAwMDAiIGZvbnQtZmFtaWx5PSJzYW5zLXNlcmlmIiBmb250LXNpemU9IjE0IiBsZW5ndGhBZGp1c3Q9InNwYWNpbmciIHRleHRMZW5ndGg9IjI2MSIgeD0iNjQwLjUiIHk9IjM0NC42ODc1Ij51cGRhdGVQcm9maWxlKFBhdGllbnQgcGF0aWVudCkgOiB2b2lkPC90ZXh0PjxlbGxpcHNlIGN4PSI2MzEuNSIgY3k9IjM1NS40Mjk3IiBmaWxsPSIjODRCRTg0IiByeD0iMyIgcnk9IjMiIHN0eWxlPSJzdHJva2U6IzAzODA0ODtzdHJva2Utd2lkdGg6MS4wOyIvPjx0ZXh0IGZpbGw9IiMwMDAwMDAiIGZvbnQtZmFtaWx5PSJzYW5zLXNlcmlmIiBmb250LXNpemU9IjE0IiBsZW5ndGhBZGp1c3Q9InNwYWNpbmciIHRleHRMZW5ndGg9IjMzNCIgeD0iNjQwLjUiIHk9IjM1OS42NzE5Ij5ib29rQXBwb2ludG1lbnQoQXBwb2ludG1lbnQgYXBwb2ludG1lbnQpIDogdm9pZDwvdGV4dD48ZWxsaXBzZSBjeD0iNjMxLjUiIGN5PSIzNzAuNDE0MSIgZmlsbD0iIzg0QkU4NCIgcng9IjMiIHJ5PSIzIiBzdHlsZT0ic3Ryb2tlOiMwMzgwNDg7c3Ryb2tlLXdpZHRoOjEuMDsiLz48dGV4dCBmaWxsPSIjMDAwMDAwIiBmb250LWZhbWlseT0ic2Fucy1zZXJpZiIgZm9udC1zaXplPSIxNCIgbGVuZ3RoQWRqdXN0PSJzcGFjaW5nIiB0ZXh0TGVuZ3RoPSIzNjkiIHg9IjY0MC41IiB5PSIzNzQuNjU2MyI+dmlld0FwcG9pbnRtZW50cyhpbnQgcGF0aWVudElkKSA6IGFycmF5Jmx0O0FwcG9pbnRtZW50Jmd0OzwvdGV4dD48L2c+PCEtLWNsYXNzIERvY3RvckNvbnRyb2xsZXItLT48ZyBpZD0iZWxlbV9Eb2N0b3JDb250cm9sbGVyIj48cmVjdCBjb2RlTGluZT0iNTYiIGZpbGw9IiNGMUYxRjEiIGhlaWdodD0iMTUyLjg5MDYiIGlkPSJEb2N0b3JDb250cm9sbGVyIiByeD0iMi41IiByeT0iMi41IiBzdHlsZT0ic3Ryb2tlOiMxODE4MTg7c3Ryb2tlLXdpZHRoOjAuNTsiIHdpZHRoPSIzODgiIHg9IjE0MDQiIHk9IjIzNSIvPjxlbGxpcHNlIGN4PSIxNTM3Ljc1IiBjeT0iMjUxIiBmaWxsPSIjQUREMUIyIiByeD0iMTEiIHJ5PSIxMSIgc3R5bGU9InN0cm9rZTojMTgxODE4O3N0cm9rZS13aWR0aDoxLjA7Ii8+PHBhdGggZD0iTTE1MzUuMzc1LDI1NS4yNSBMMTUzNS4zNzUsMjU3IEwxNTQwLjMxMjUsMjU3IEwxNTQwLjMxMjUsMjU1LjI1IEwxNTM1LjM3NSwyNTUuMjUgWiBNMTUzNi4wNjI1LDI1NS45Mzc1IFExNTM2LjA2MjUsMjU1LjkzNzUgMTUzNi4wNjI1LDI0Ni43NSBMMTUzNC4zMTI1LDI0Ni43NSBRMTUzNC4zMTI1LDI0Ni43NSAxNTM0LjMxMjUsMjU1LjkzNzUgTDE1MzYuMDYyNSwyNTUuOTM3NSBaIE0xNTM5LjYyNSwyNTUuOTM3NSBMMTU0MS4zNzUsMjU1LjkzNzUgUTE1NDEuMzc1LDI1NS45Mzc1IDE1NDEuMzc1LDI1My4xMjUgTDE1MzkuNjI1LDI1My4xMjUgUTE1MzkuNjI1LDI1My4xMjUgMTUzOS42MjUsMjU1LjkzNzUgWiBNMTUzOS42MjUsMjQ2Ljc1IFExNTM5LjYyNSwyNDYuNzUgMTUzOS42MjUsMjQ5LjU2MjUgTDE1NDEuMzc1LDI0OS41NjI1IFExNTQxLjM3NSwyNDkuNTYyNSAxNTQxLjM3NSwyNDYuNzUgTDE1MzkuNjI1LDI0Ni43NSBaIE0xNTM1LjM3NSwyNDcuNDM3NSBMMTU0MC4zMTI1LDI0Ny40Mzc1IEwxNTQwLjMxMjUsMjQ1LjY4NzUgTDE1MzUuMzc1LDI0NS42ODc1IEwxNTM1LjM3NSwyNDcuNDM3NSBaICIgZmlsbD0iIzAwMDAwMCIvPjx0ZXh0IGZpbGw9IiMwMDAwMDAiIGZvbnQtZmFtaWx5PSJzYW5zLXNlcmlmIiBmb250LXNpemU9IjE0IiBsZW5ndGhBZGp1c3Q9InNwYWNpbmciIHRleHRMZW5ndGg9IjExMiIgeD0iMTU1OC4yNSIgeT0iMjU2Ljc0MjIiPkRvY3RvckNvbnRyb2xsZXI8L3RleHQ+PGxpbmUgc3R5bGU9InN0cm9rZTojMTgxODE4O3N0cm9rZS13aWR0aDowLjU7IiB4MT0iMTQwNSIgeDI9IjE3OTEiIHkxPSIyNjciIHkyPSIyNjciLz48bGluZSBzdHlsZT0ic3Ryb2tlOiMxODE4MTg7c3Ryb2tlLXdpZHRoOjAuNTsiIHgxPSIxNDA1IiB4Mj0iMTc5MSIgeTE9IjI3NSIgeTI9IjI3NSIvPjxlbGxpcHNlIGN4PSIxNDE1IiBjeT0iMjg3Ljk5MjIiIGZpbGw9IiM4NEJFODQiIHJ4PSIzIiByeT0iMyIgc3R5bGU9InN0cm9rZTojMDM4MDQ4O3N0cm9rZS13aWR0aDoxLjA7Ii8+PHRleHQgZmlsbD0iIzAwMDAwMCIgZm9udC1mYW1pbHk9InNhbnMtc2VyaWYiIGZvbnQtc2l6ZT0iMTQiIGxlbmd0aEFkanVzdD0ic3BhY2luZyIgdGV4dExlbmd0aD0iMjEyIiB4PSIxNDI0IiB5PSIyOTIuMjM0NCI+cmVnaXN0ZXIoRG9jdG9yIGRvY3RvcikgOiB2b2lkPC90ZXh0PjxlbGxpcHNlIGN4PSIxNDE1IiBjeT0iMzAyLjk3NjYiIGZpbGw9IiM4NEJFODQiIHJ4PSIzIiByeT0iMyIgc3R5bGU9InN0cm9rZTojMDM4MDQ4O3N0cm9rZS13aWR0aDoxLjA7Ii8+PHRleHQgZmlsbD0iIzAwMDAwMCIgZm9udC1mYW1pbHk9InNhbnMtc2VyaWYiIGZvbnQtc2l6ZT0iMTQiIGxlbmd0aEFkanVzdD0ic3BhY2luZyIgdGV4dExlbmd0aD0iMzA1IiB4PSIxNDI0IiB5PSIzMDcuMjE4OCI+bG9naW4oc3RyaW5nIGVtYWlsLCBzdHJpbmcgcGFzc3dvcmQpIDogYm9vbDwvdGV4dD48ZWxsaXBzZSBjeD0iMTQxNSIgY3k9IjMxNy45NjA5IiBmaWxsPSIjODRCRTg0IiByeD0iMyIgcnk9IjMiIHN0eWxlPSJzdHJva2U6IzAzODA0ODtzdHJva2Utd2lkdGg6MS4wOyIvPjx0ZXh0IGZpbGw9IiMwMDAwMDAiIGZvbnQtZmFtaWx5PSJzYW5zLXNlcmlmIiBmb250LXNpemU9IjE0IiBsZW5ndGhBZGp1c3Q9InNwYWNpbmciIHRleHRMZW5ndGg9IjI0MSIgeD0iMTQyNCIgeT0iMzIyLjIwMzEiPnZpZXdQcm9maWxlKGludCBkb2N0b3JJZCkgOiBEb2N0b3I8L3RleHQ+PGVsbGlwc2UgY3g9IjE0MTUiIGN5PSIzMzIuOTQ1MyIgZmlsbD0iIzg0QkU4NCIgcng9IjMiIHJ5PSIzIiBzdHlsZT0ic3Ryb2tlOiMwMzgwNDg7c3Ryb2tlLXdpZHRoOjEuMDsiLz48dGV4dCBmaWxsPSIjMDAwMDAwIiBmb250LWZhbWlseT0ic2Fucy1zZXJpZiIgZm9udC1zaXplPSIxNCIgbGVuZ3RoQWRqdXN0PSJzcGFjaW5nIiB0ZXh0TGVuZ3RoPSIyNDciIHg9IjE0MjQiIHk9IjMzNy4xODc1Ij51cGRhdGVQcm9maWxlKERvY3RvciBkb2N0b3IpIDogdm9pZDwvdGV4dD48ZWxsaXBzZSBjeD0iMTQxNSIgY3k9IjM0Ny45Mjk3IiBmaWxsPSIjODRCRTg0IiByeD0iMyIgcnk9IjMiIHN0eWxlPSJzdHJva2U6IzAzODA0ODtzdHJva2Utd2lkdGg6MS4wOyIvPjx0ZXh0IGZpbGw9IiMwMDAwMDAiIGZvbnQtZmFtaWx5PSJzYW5zLXNlcmlmIiBmb250LXNpemU9IjE0IiBsZW5ndGhBZGp1c3Q9InNwYWNpbmciIHRleHRMZW5ndGg9IjM2MiIgeD0iMTQyNCIgeT0iMzUyLjE3MTkiPnZpZXdBcHBvaW50bWVudHMoaW50IGRvY3RvcklkKSA6IGFycmF5Jmx0O0FwcG9pbnRtZW50Jmd0OzwvdGV4dD48ZWxsaXBzZSBjeD0iMTQxNSIgY3k9IjM2Mi45MTQxIiBmaWxsPSIjODRCRTg0IiByeD0iMyIgcnk9IjMiIHN0eWxlPSJzdHJva2U6IzAzODA0ODtzdHJva2Utd2lkdGg6MS4wOyIvPjx0ZXh0IGZpbGw9IiMwMDAwMDAiIGZvbnQtZmFtaWx5PSJzYW5zLXNlcmlmIiBmb250LXNpemU9IjE0IiBsZW5ndGhBZGp1c3Q9InNwYWNpbmciIHRleHRMZW5ndGg9IjMxMyIgeD0iMTQyNCIgeT0iMzY3LjE1NjMiPmNvbmZpcm1BcHBvaW50bWVudChpbnQgYXBwb2ludG1lbnRJZCkgOiB2b2lkPC90ZXh0PjxlbGxpcHNlIGN4PSIxNDE1IiBjeT0iMzc3Ljg5ODQiIGZpbGw9IiM4NEJFODQiIHJ4PSIzIiByeT0iMyIgc3R5bGU9InN0cm9rZTojMDM4MDQ4O3N0cm9rZS13aWR0aDoxLjA7Ii8+PHRleHQgZmlsbD0iIzAwMDAwMCIgZm9udC1mYW1pbHk9InNhbnMtc2VyaWYiIGZvbnQtc2l6ZT0iMTQiIGxlbmd0aEFkanVzdD0ic3BhY2luZyIgdGV4dExlbmd0aD0iMzA1IiB4PSIxNDI0IiB5PSIzODIuMTQwNiI+Y2FuY2VsQXBwb2ludG1lbnQoaW50IGFwcG9pbnRtZW50SWQpIDogdm9pZDwvdGV4dD48L2c+PCEtLWNsYXNzIEFkbWluQ29udHJvbGxlci0tPjxnIGlkPSJlbGVtX0FkbWluQ29udHJvbGxlciI+PHJlY3QgY29kZUxpbmU9IjY2IiBmaWxsPSIjRjFGMUYxIiBoZWlnaHQ9IjkyLjk1MzEiIGlkPSJBZG1pbkNvbnRyb2xsZXIiIHJ4PSIyLjUiIHJ5PSIyLjUiIHN0eWxlPSJzdHJva2U6IzE4MTgxODtzdHJva2Utd2lkdGg6MC41OyIgd2lkdGg9IjMxOCIgeD0iMTA1MSIgeT0iMjY1Ii8+PGVsbGlwc2UgY3g9IjExNTIuNzUiIGN5PSIyODEiIGZpbGw9IiNBREQxQjIiIHJ4PSIxMSIgcnk9IjExIiBzdHlsZT0ic3Ryb2tlOiMxODE4MTg7c3Ryb2tlLXdpZHRoOjEuMDsiLz48cGF0aCBkPSJNMTE1MC4zNzUsMjg1LjI1IEwxMTUwLjM3NSwyODcgTDExNTUuMzEyNSwyODcgTDExNTUuMzEyNSwyODUuMjUgTDExNTAuMzc1LDI4NS4yNSBaIE0xMTUxLjA2MjUsMjg1LjkzNzUgUTExNTEuMDYyNSwyODUuOTM3NSAxMTUxLjA2MjUsMjc2Ljc1IEwxMTQ5LjMxMjUsMjc2Ljc1IFExMTQ5LjMxMjUsMjc2Ljc1IDExNDkuMzEyNSwyODUuOTM3NSBMMTE1MS4wNjI1LDI4NS45Mzc1IFogTTExNTQuNjI1LDI4NS45Mzc1IEwxMTU2LjM3NSwyODUuOTM3NSBRMTE1Ni4zNzUsMjg1LjkzNzUgMTE1Ni4zNzUsMjgzLjEyNSBMMTE1NC42MjUsMjgzLjEyNSBRMTE1NC42MjUsMjgzLjEyNSAxMTU0LjYyNSwyODUuOTM3NSBaIE0xMTU0LjYyNSwyNzYuNzUgUTExNTQuNjI1LDI3Ni43NSAxMTU0LjYyNSwyNzkuNTYyNSBMMTE1Ni4zNzUsMjc5LjU2MjUgUTExNTYuMzc1LDI3OS41NjI1IDExNTYuMzc1LDI3Ni43NSBMMTE1NC42MjUsMjc2Ljc1IFogTTExNTAuMzc1LDI3Ny40Mzc1IEwxMTU1LjMxMjUsMjc3LjQzNzUgTDExNTUuMzEyNSwyNzUuNjg3NSBMMTE1MC4zNzUsMjc1LjY4NzUgTDExNTAuMzc1LDI3Ny40Mzc1IFogIiBmaWxsPSIjMDAwMDAwIi8+PHRleHQgZmlsbD0iIzAwMDAwMCIgZm9udC1mYW1pbHk9InNhbnMtc2VyaWYiIGZvbnQtc2l6ZT0iMTQiIGxlbmd0aEFkanVzdD0ic3BhY2luZyIgdGV4dExlbmd0aD0iMTA2IiB4PSIxMTczLjI1IiB5PSIyODYuNzQyMiI+QWRtaW5Db250cm9sbGVyPC90ZXh0PjxsaW5lIHN0eWxlPSJzdHJva2U6IzE4MTgxODtzdHJva2Utd2lkdGg6MC41OyIgeDE9IjEwNTIiIHgyPSIxMzY4IiB5MT0iMjk3IiB5Mj0iMjk3Ii8+PGxpbmUgc3R5bGU9InN0cm9rZTojMTgxODE4O3N0cm9rZS13aWR0aDowLjU7IiB4MT0iMTA1MiIgeDI9IjEzNjgiIHkxPSIzMDUiIHkyPSIzMDUiLz48ZWxsaXBzZSBjeD0iMTA2MiIgY3k9IjMxNy45OTIyIiBmaWxsPSIjODRCRTg0IiByeD0iMyIgcnk9IjMiIHN0eWxlPSJzdHJva2U6IzAzODA0ODtzdHJva2Utd2lkdGg6MS4wOyIvPjx0ZXh0IGZpbGw9IiMwMDAwMDAiIGZvbnQtZmFtaWx5PSJzYW5zLXNlcmlmIiBmb250LXNpemU9IjE0IiBsZW5ndGhBZGp1c3Q9InNwYWNpbmciIHRleHRMZW5ndGg9IjE5MiIgeD0iMTA3MSIgeT0iMzIyLjIzNDQiPm1hbmFnZVVzZXJzKCkgOiBhcnJheSZsdDtVc2VyJmd0OzwvdGV4dD48ZWxsaXBzZSBjeD0iMTA2MiIgY3k9IjMzMi45NzY2IiBmaWxsPSIjODRCRTg0IiByeD0iMyIgcnk9IjMiIHN0eWxlPSJzdHJva2U6IzAzODA0ODtzdHJva2Utd2lkdGg6MS4wOyIvPjx0ZXh0IGZpbGw9IiMwMDAwMDAiIGZvbnQtZmFtaWx5PSJzYW5zLXNlcmlmIiBmb250LXNpemU9IjE0IiBsZW5ndGhBZGp1c3Q9InNwYWNpbmciIHRleHRMZW5ndGg9IjI5MiIgeD0iMTA3MSIgeT0iMzM3LjIxODgiPm1hbmFnZUFwcG9pbnRtZW50cygpIDogYXJyYXkmbHQ7QXBwb2ludG1lbnQmZ3Q7PC90ZXh0PjxlbGxpcHNlIGN4PSIxMDYyIiBjeT0iMzQ3Ljk2MDkiIGZpbGw9IiM4NEJFODQiIHJ4PSIzIiByeT0iMyIgc3R5bGU9InN0cm9rZTojMDM4MDQ4O3N0cm9rZS13aWR0aDoxLjA7Ii8+PHRleHQgZmlsbD0iIzAwMDAwMCIgZm9udC1mYW1pbHk9InNhbnMtc2VyaWYiIGZvbnQtc2l6ZT0iMTQiIGxlbmd0aEFkanVzdD0ic3BhY2luZyIgdGV4dExlbmd0aD0iMjQ4IiB4PSIxMDcxIiB5PSIzNTIuMjAzMSI+dmlld1N0YXRpc3RpY3MoKSA6IGFycmF5Jmx0O1N0YXRpc3RpYyZndDs8L3RleHQ+PC9nPjwhLS1jbGFzcyBQYXRpZW50Vmlldy0tPjxnIGlkPSJlbGVtX1BhdGllbnRWaWV3Ij48cmVjdCBjb2RlTGluZT0iNzMiIGZpbGw9IiNGMUYxRjEiIGhlaWdodD0iMTA3LjkzNzUiIGlkPSJQYXRpZW50VmlldyIgcng9IjIuNSIgcnk9IjIuNSIgc3R5bGU9InN0cm9rZTojMTgxODE4O3N0cm9rZS13aWR0aDowLjU7IiB3aWR0aD0iNDM3IiB4PSI1MDguNSIgeT0iNTM4Ii8+PGVsbGlwc2UgY3g9IjY4My43NSIgY3k9IjU1NCIgZmlsbD0iI0FERDFCMiIgcng9IjExIiByeT0iMTEiIHN0eWxlPSJzdHJva2U6IzE4MTgxODtzdHJva2Utd2lkdGg6MS4wOyIvPjxwYXRoIGQ9Ik02ODEuMzc1LDU1OC4yNSBMNjgxLjM3NSw1NjAgTDY4Ni4zMTI1LDU2MCBMNjg2LjMxMjUsNTU4LjI1IEw2ODEuMzc1LDU1OC4yNSBaIE02ODIuMDYyNSw1NTguOTM3NSBRNjgyLjA2MjUsNTU4LjkzNzUgNjgyLjA2MjUsNTQ5Ljc1IEw2ODAuMzEyNSw1NDkuNzUgUTY4MC4zMTI1LDU0OS43NSA2ODAuMzEyNSw1NTguOTM3NSBMNjgyLjA2MjUsNTU4LjkzNzUgWiBNNjg1LjYyNSw1NTguOTM3NSBMNjg3LjM3NSw1NTguOTM3NSBRNjg3LjM3NSw1NTguOTM3NSA2ODcuMzc1LDU1Ni4xMjUgTDY4NS42MjUsNTU2LjEyNSBRNjg1LjYyNSw1NTYuMTI1IDY4NS42MjUsNTU4LjkzNzUgWiBNNjg1LjYyNSw1NDkuNzUgUTY4NS42MjUsNTQ5Ljc1IDY4NS42MjUsNTUyLjU2MjUgTDY4Ny4zNzUsNTUyLjU2MjUgUTY4Ny4zNzUsNTUyLjU2MjUgNjg3LjM3NSw1NDkuNzUgTDY4NS42MjUsNTQ5Ljc1IFogTTY4MS4zNzUsNTUwLjQzNzUgTDY4Ni4zMTI1LDU1MC40Mzc1IEw2ODYuMzEyNSw1NDguNjg3NSBMNjgxLjM3NSw1NDguNjg3NSBMNjgxLjM3NSw1NTAuNDM3NSBaICIgZmlsbD0iIzAwMDAwMCIvPjx0ZXh0IGZpbGw9IiMwMDAwMDAiIGZvbnQtZmFtaWx5PSJzYW5zLXNlcmlmIiBmb250LXNpemU9IjE0IiBsZW5ndGhBZGp1c3Q9InNwYWNpbmciIHRleHRMZW5ndGg9Ijc4IiB4PSI3MDQuMjUiIHk9IjU1OS43NDIyIj5QYXRpZW50VmlldzwvdGV4dD48bGluZSBzdHlsZT0ic3Ryb2tlOiMxODE4MTg7c3Ryb2tlLXdpZHRoOjAuNTsiIHgxPSI1MDkuNSIgeDI9Ijk0NC41IiB5MT0iNTcwIiB5Mj0iNTcwIi8+PGxpbmUgc3R5bGU9InN0cm9rZTojMTgxODE4O3N0cm9rZS13aWR0aDowLjU7IiB4MT0iNTA5LjUiIHgyPSI5NDQuNSIgeTE9IjU3OCIgeTI9IjU3OCIvPjxlbGxpcHNlIGN4PSI1MTkuNSIgY3k9IjU5MC45OTIyIiBmaWxsPSIjODRCRTg0IiByeD0iMyIgcnk9IjMiIHN0eWxlPSJzdHJva2U6IzAzODA0ODtzdHJva2Utd2lkdGg6MS4wOyIvPjx0ZXh0IGZpbGw9IiMwMDAwMDAiIGZvbnQtZmFtaWx5PSJzYW5zLXNlcmlmIiBmb250LXNpemU9IjE0IiBsZW5ndGhBZGp1c3Q9InNwYWNpbmciIHRleHRMZW5ndGg9IjI2MSIgeD0iNTI4LjUiIHk9IjU5NS4yMzQ0Ij5yZW5kZXJQcm9maWxlKFBhdGllbnQgcGF0aWVudCkgOiB2b2lkPC90ZXh0PjxlbGxpcHNlIGN4PSI1MTkuNSIgY3k9IjYwNS45NzY2IiBmaWxsPSIjODRCRTg0IiByeD0iMyIgcnk9IjMiIHN0eWxlPSJzdHJva2U6IzAzODA0ODtzdHJva2Utd2lkdGg6MS4wOyIvPjx0ZXh0IGZpbGw9IiMwMDAwMDAiIGZvbnQtZmFtaWx5PSJzYW5zLXNlcmlmIiBmb250LXNpemU9IjE0IiBsZW5ndGhBZGp1c3Q9InNwYWNpbmciIHRleHRMZW5ndGg9IjQxMSIgeD0iNTI4LjUiIHk9IjYxMC4yMTg4Ij5yZW5kZXJBcHBvaW50bWVudHMoYXJyYXkmbHQ7QXBwb2ludG1lbnQmZ3Q7IGFwcG9pbnRtZW50cykgOiB2b2lkPC90ZXh0PjxlbGxpcHNlIGN4PSI1MTkuNSIgY3k9IjYyMC45NjA5IiBmaWxsPSIjODRCRTg0IiByeD0iMyIgcnk9IjMiIHN0eWxlPSJzdHJva2U6IzAzODA0ODtzdHJva2Utd2lkdGg6MS4wOyIvPjx0ZXh0IGZpbGw9IiMwMDAwMDAiIGZvbnQtZmFtaWx5PSJzYW5zLXNlcmlmIiBmb250LXNpemU9IjE0IiBsZW5ndGhBZGp1c3Q9InNwYWNpbmciIHRleHRMZW5ndGg9IjIyMCIgeD0iNTI4LjUiIHk9IjYyNS4yMDMxIj5yZW5kZXJSZWdpc3RyYXRpb25Gb3JtKCkgOiB2b2lkPC90ZXh0PjxlbGxpcHNlIGN4PSI1MTkuNSIgY3k9IjYzNS45NDUzIiBmaWxsPSIjODRCRTg0IiByeD0iMyIgcnk9IjMiIHN0eWxlPSJzdHJva2U6IzAzODA0ODtzdHJva2Utd2lkdGg6MS4wOyIvPjx0ZXh0IGZpbGw9IiMwMDAwMDAiIGZvbnQtZmFtaWx5PSJzYW5zLXNlcmlmIiBmb250LXNpemU9IjE0IiBsZW5ndGhBZGp1c3Q9InNwYWNpbmciIHRleHRMZW5ndGg9IjE3MSIgeD0iNTI4LjUiIHk9IjY0MC4xODc1Ij5yZW5kZXJMb2dpbkZvcm0oKSA6IHZvaWQ8L3RleHQ+PC9nPjwhLS1jbGFzcyBEb2N0b3JWaWV3LS0+PGcgaWQ9ImVsZW1fRG9jdG9yVmlldyI+PHJlY3QgY29kZUxpbmU9IjgwIiBmaWxsPSIjRjFGMUYxIiBoZWlnaHQ9IjEwNy45Mzc1IiBpZD0iRG9jdG9yVmlldyIgcng9IjIuNSIgcnk9IjIuNSIgc3R5bGU9InN0cm9rZTojMTgxODE4O3N0cm9rZS13aWR0aDowLjU7IiB3aWR0aD0iNDM3IiB4PSIxNDc0LjUiIHk9IjUzOCIvPjxlbGxpcHNlIGN4PSIxNjUzLjI1IiBjeT0iNTU0IiBmaWxsPSIjQUREMUIyIiByeD0iMTEiIHJ5PSIxMSIgc3R5bGU9InN0cm9rZTojMTgxODE4O3N0cm9rZS13aWR0aDoxLjA7Ii8+PHBhdGggZD0iTTE2NTAuODc1LDU1OC4yNSBMMTY1MC44NzUsNTYwIEwxNjU1LjgxMjUsNTYwIEwxNjU1LjgxMjUsNTU4LjI1IEwxNjUwLjg3NSw1NTguMjUgWiBNMTY1MS41NjI1LDU1OC45Mzc1IFExNjUxLjU2MjUsNTU4LjkzNzUgMTY1MS41NjI1LDU0OS43NSBMMTY0OS44MTI1LDU0OS43NSBRMTY0OS44MTI1LDU0OS43NSAxNjQ5LjgxMjUsNTU4LjkzNzUgTDE2NTEuNTYyNSw1NTguOTM3NSBaIE0xNjU1LjEyNSw1NTguOTM3NSBMMTY1Ni44NzUsNTU4LjkzNzUgUTE2NTYuODc1LDU1OC45Mzc1IDE2NTYuODc1LDU1Ni4xMjUgTDE2NTUuMTI1LDU1Ni4xMjUgUTE2NTUuMTI1LDU1Ni4xMjUgMTY1NS4xMjUsNTU4LjkzNzUgWiBNMTY1NS4xMjUsNTQ5Ljc1IFExNjU1LjEyNSw1NDkuNzUgMTY1NS4xMjUsNTUyLjU2MjUgTDE2NTYuODc1LDU1Mi41NjI1IFExNjU2Ljg3NSw1NTIuNTYyNSAxNjU2Ljg3NSw1NDkuNzUgTDE2NTUuMTI1LDU0OS43NSBaIE0xNjUwLjg3NSw1NTAuNDM3NSBMMTY1NS44MTI1LDU1MC40Mzc1IEwxNjU1LjgxMjUsNTQ4LjY4NzUgTDE2NTAuODc1LDU0OC42ODc1IEwxNjUwLjg3NSw1NTAuNDM3NSBaICIgZmlsbD0iIzAwMDAwMCIvPjx0ZXh0IGZpbGw9IiMwMDAwMDAiIGZvbnQtZmFtaWx5PSJzYW5zLXNlcmlmIiBmb250LXNpemU9IjE0IiBsZW5ndGhBZGp1c3Q9InNwYWNpbmciIHRleHRMZW5ndGg9IjcxIiB4PSIxNjczLjc1IiB5PSI1NTkuNzQyMiI+RG9jdG9yVmlldzwvdGV4dD48bGluZSBzdHlsZT0ic3Ryb2tlOiMxODE4MTg7c3Ryb2tlLXdpZHRoOjAuNTsiIHgxPSIxNDc1LjUiIHgyPSIxOTEwLjUiIHkxPSI1NzAiIHkyPSI1NzAiLz48bGluZSBzdHlsZT0ic3Ryb2tlOiMxODE4MTg7c3Ryb2tlLXdpZHRoOjAuNTsiIHgxPSIxNDc1LjUiIHgyPSIxOTEwLjUiIHkxPSI1NzgiIHkyPSI1NzgiLz48ZWxsaXBzZSBjeD0iMTQ4NS41IiBjeT0iNTkwLjk5MjIiIGZpbGw9IiM4NEJFODQiIHJ4PSIzIiByeT0iMyIgc3R5bGU9InN0cm9rZTojMDM4MDQ4O3N0cm9rZS13aWR0aDoxLjA7Ii8+PHRleHQgZmlsbD0iIzAwMDAwMCIgZm9udC1mYW1pbHk9InNhbnMtc2VyaWYiIGZvbnQtc2l6ZT0iMTQiIGxlbmd0aEFkanVzdD0ic3BhY2luZyIgdGV4dExlbmd0aD0iMjQ3IiB4PSIxNDk0LjUiIHk9IjU5NS4yMzQ0Ij5yZW5kZXJQcm9maWxlKERvY3RvciBkb2N0b3IpIDogdm9pZDwvdGV4dD48ZWxsaXBzZSBjeD0iMTQ4NS41IiBjeT0iNjA1Ljk3NjYiIGZpbGw9IiM4NEJFODQiIHJ4PSIzIiByeT0iMyIgc3R5bGU9InN0cm9rZTojMDM4MDQ4O3N0cm9rZS13aWR0aDoxLjA7Ii8+PHRleHQgZmlsbD0iIzAwMDAwMCIgZm9udC1mYW1pbHk9InNhbnMtc2VyaWYiIGZvbnQtc2l6ZT0iMTQiIGxlbmd0aEFkanVzdD0ic3BhY2luZyIgdGV4dExlbmd0aD0iNDExIiB4PSIxNDk0LjUiIHk9IjYxMC4yMTg4Ij5yZW5kZXJBcHBvaW50bWVudHMoYXJyYXkmbHQ7QXBwb2ludG1lbnQmZ3Q7IGFwcG9pbnRtZW50cykgOiB2b2lkPC90ZXh0PjxlbGxpcHNlIGN4PSIxNDg1LjUiIGN5PSI2MjAuOTYwOSIgZmlsbD0iIzg0QkU4NCIgcng9IjMiIHJ5PSIzIiBzdHlsZT0ic3Ryb2tlOiMwMzgwNDg7c3Ryb2tlLXdpZHRoOjEuMDsiLz48dGV4dCBmaWxsPSIjMDAwMDAwIiBmb250LWZhbWlseT0ic2Fucy1zZXJpZiIgZm9udC1zaXplPSIxNCIgbGVuZ3RoQWRqdXN0PSJzcGFjaW5nIiB0ZXh0TGVuZ3RoPSIyMjAiIHg9IjE0OTQuNSIgeT0iNjI1LjIwMzEiPnJlbmRlclJlZ2lzdHJhdGlvbkZvcm0oKSA6IHZvaWQ8L3RleHQ+PGVsbGlwc2UgY3g9IjE0ODUuNSIgY3k9IjYzNS45NDUzIiBmaWxsPSIjODRCRTg0IiByeD0iMyIgcnk9IjMiIHN0eWxlPSJzdHJva2U6IzAzODA0ODtzdHJva2Utd2lkdGg6MS4wOyIvPjx0ZXh0IGZpbGw9IiMwMDAwMDAiIGZvbnQtZmFtaWx5PSJzYW5zLXNlcmlmIiBmb250LXNpemU9IjE0IiBsZW5ndGhBZGp1c3Q9InNwYWNpbmciIHRleHRMZW5ndGg9IjE3MSIgeD0iMTQ5NC41IiB5PSI2NDAuMTg3NSI+cmVuZGVyTG9naW5Gb3JtKCkgOiB2b2lkPC90ZXh0PjwvZz48IS0tY2xhc3MgQWRtaW5WaWV3LS0+PGcgaWQ9ImVsZW1fQWRtaW5WaWV3Ij48cmVjdCBjb2RlTGluZT0iODciIGZpbGw9IiNGMUYxRjEiIGhlaWdodD0iOTIuOTUzMSIgaWQ9IkFkbWluVmlldyIgcng9IjIuNSIgcnk9IjIuNSIgc3R5bGU9InN0cm9rZTojMTgxODE4O3N0cm9rZS13aWR0aDowLjU7IiB3aWR0aD0iNDU4IiB4PSI5ODEiIHk9IjU0NS41Ii8+PGVsbGlwc2UgY3g9IjExNzMuMjUiIGN5PSI1NjEuNSIgZmlsbD0iI0FERDFCMiIgcng9IjExIiByeT0iMTEiIHN0eWxlPSJzdHJva2U6IzE4MTgxODtzdHJva2Utd2lkdGg6MS4wOyIvPjxwYXRoIGQ9Ik0xMTcwLjg3NSw1NjUuNzUgTDExNzAuODc1LDU2Ny41IEwxMTc1LjgxMjUsNTY3LjUgTDExNzUuODEyNSw1NjUuNzUgTDExNzAuODc1LDU2NS43NSBaIE0xMTcxLjU2MjUsNTY2LjQzNzUgUTExNzEuNTYyNSw1NjYuNDM3NSAxMTcxLjU2MjUsNTU3LjI1IEwxMTY5LjgxMjUsNTU3LjI1IFExMTY5LjgxMjUsNTU3LjI1IDExNjkuODEyNSw1NjYuNDM3NSBMMTE3MS41NjI1LDU2Ni40Mzc1IFogTTExNzUuMTI1LDU2Ni40Mzc1IEwxMTc2Ljg3NSw1NjYuNDM3NSBRMTE3Ni44NzUsNTY2LjQzNzUgMTE3Ni44NzUsNTYzLjYyNSBMMTE3NS4xMjUsNTYzLjYyNSBRMTE3NS4xMjUsNTYzLjYyNSAxMTc1LjEyNSw1NjYuNDM3NSBaIE0xMTc1LjEyNSw1NTcuMjUgUTExNzUuMTI1LDU1Ny4yNSAxMTc1LjEyNSw1NjAuMDYyNSBMMTE3Ni44NzUsNTYwLjA2MjUgUTExNzYuODc1LDU2MC4wNjI1IDExNzYuODc1LDU1Ny4yNSBMMTE3NS4xMjUsNTU3LjI1IFogTTExNzAuODc1LDU1Ny45Mzc1IEwxMTc1LjgxMjUsNTU3LjkzNzUgTDExNzUuODEyNSw1NTYuMTg3NSBMMTE3MC44NzUsNTU2LjE4NzUgTDExNzAuODc1LDU1Ny45Mzc1IFogIiBmaWxsPSIjMDAwMDAwIi8+PHRleHQgZmlsbD0iIzAwMDAwMCIgZm9udC1mYW1pbHk9InNhbnMtc2VyaWYiIGZvbnQtc2l6ZT0iMTQiIGxlbmd0aEFkanVzdD0ic3BhY2luZyIgdGV4dExlbmd0aD0iNjUiIHg9IjExOTMuNzUiIHk9IjU2Ny4yNDIyIj5BZG1pblZpZXc8L3RleHQ+PGxpbmUgc3R5bGU9InN0cm9rZTojMTgxODE4O3N0cm9rZS13aWR0aDowLjU7IiB4MT0iOTgyIiB4Mj0iMTQzOCIgeTE9IjU3Ny41IiB5Mj0iNTc3LjUiLz48bGluZSBzdHlsZT0ic3Ryb2tlOiMxODE4MTg7c3Ryb2tlLXdpZHRoOjAuNTsiIHgxPSI5ODIiIHgyPSIxNDM4IiB5MT0iNTg1LjUiIHkyPSI1ODUuNSIvPjxlbGxpcHNlIGN4PSI5OTIiIGN5PSI1OTguNDkyMiIgZmlsbD0iIzg0QkU4NCIgcng9IjMiIHJ5PSIzIiBzdHlsZT0ic3Ryb2tlOiMwMzgwNDg7c3Ryb2tlLXdpZHRoOjEuMDsiLz48dGV4dCBmaWxsPSIjMDAwMDAwIiBmb250LWZhbWlseT0ic2Fucy1zZXJpZiIgZm9udC1zaXplPSIxNCIgbGVuZ3RoQWRqdXN0PSJzcGFjaW5nIiB0ZXh0TGVuZ3RoPSIyODIiIHg9IjEwMDEiIHk9IjYwMi43MzQ0Ij5yZW5kZXJVc2VyTGlzdChhcnJheSZsdDtVc2VyJmd0OyB1c2VycykgOiB2b2lkPC90ZXh0PjxlbGxpcHNlIGN4PSI5OTIiIGN5PSI2MTMuNDc2NiIgZmlsbD0iIzg0QkU4NCIgcng9IjMiIHJ5PSIzIiBzdHlsZT0ic3Ryb2tlOiMwMzgwNDg7c3Ryb2tlLXdpZHRoOjEuMDsiLz48dGV4dCBmaWxsPSIjMDAwMDAwIiBmb250LWZhbWlseT0ic2Fucy1zZXJpZiIgZm9udC1zaXplPSIxNCIgbGVuZ3RoQWRqdXN0PSJzcGFjaW5nIiB0ZXh0TGVuZ3RoPSI0MzIiIHg9IjEwMDEiIHk9IjYxNy43MTg4Ij5yZW5kZXJBcHBvaW50bWVudExpc3QoYXJyYXkmbHQ7QXBwb2ludG1lbnQmZ3Q7IGFwcG9pbnRtZW50cykgOiB2b2lkPC90ZXh0PjxlbGxpcHNlIGN4PSI5OTIiIGN5PSI2MjguNDYwOSIgZmlsbD0iIzg0QkU4NCIgcng9IjMiIHJ5PSIzIiBzdHlsZT0ic3Ryb2tlOiMwMzgwNDg7c3Ryb2tlLXdpZHRoOjEuMDsiLz48dGV4dCBmaWxsPSIjMDAwMDAwIiBmb250LWZhbWlseT0ic2Fucy1zZXJpZiIgZm9udC1zaXplPSIxNCIgbGVuZ3RoQWRqdXN0PSJzcGFjaW5nIiB0ZXh0TGVuZ3RoPSIzNjYiIHg9IjEwMDEiIHk9IjYzMi43MDMxIj5yZW5kZXJTdGF0aXN0aWNzKGFycmF5Jmx0O1N0YXRpc3RpYyZndDsgc3RhdGlzdGljcykgOiB2b2lkPC90ZXh0PjwvZz48IS0tY2xhc3MgRGF0YWJhc2UtLT48ZyBpZD0iZWxlbV9EYXRhYmFzZSI+PHJlY3QgY29kZUxpbmU9Ijk5IiBmaWxsPSIjRjFGMUYxIiBoZWlnaHQ9IjkyLjk1MzEiIGlkPSJEYXRhYmFzZSIgcng9IjIuNSIgcnk9IjIuNSIgc3R5bGU9InN0cm9rZTojMTgxODE4O3N0cm9rZS13aWR0aDowLjU7IiB3aWR0aD0iMzY1IiB4PSIxNzEuNSIgeT0iMjIiLz48ZWxsaXBzZSBjeD0iMzIxLjc1IiBjeT0iMzgiIGZpbGw9IiNBREQxQjIiIHJ4PSIxMSIgcnk9IjExIiBzdHlsZT0ic3Ryb2tlOiMxODE4MTg7c3Ryb2tlLXdpZHRoOjEuMDsiLz48cGF0aCBkPSJNMzE5LjM3NSw0Mi4yNSBMMzE5LjM3NSw0NCBMMzI0LjMxMjUsNDQgTDMyNC4zMTI1LDQyLjI1IEwzMTkuMzc1LDQyLjI1IFogTTMyMC4wNjI1LDQyLjkzNzUgUTMyMC4wNjI1LDQyLjkzNzUgMzIwLjA2MjUsMzMuNzUgTDMxOC4zMTI1LDMzLjc1IFEzMTguMzEyNSwzMy43NSAzMTguMzEyNSw0Mi45Mzc1IEwzMjAuMDYyNSw0Mi45Mzc1IFogTTMyMy42MjUsNDIuOTM3NSBMMzI1LjM3NSw0Mi45Mzc1IFEzMjUuMzc1LDQyLjkzNzUgMzI1LjM3NSw0MC4xMjUgTDMyMy42MjUsNDAuMTI1IFEzMjMuNjI1LDQwLjEyNSAzMjMuNjI1LDQyLjkzNzUgWiBNMzIzLjYyNSwzMy43NSBRMzIzLjYyNSwzMy43NSAzMjMuNjI1LDM2LjU2MjUgTDMyNS4zNzUsMzYuNTYyNSBRMzI1LjM3NSwzNi41NjI1IDMyNS4zNzUsMzMuNzUgTDMyMy42MjUsMzMuNzUgWiBNMzE5LjM3NSwzNC40Mzc1IEwzMjQuMzEyNSwzNC40Mzc1IEwzMjQuMzEyNSwzMi42ODc1IEwzMTkuMzc1LDMyLjY4NzUgTDMxOS4zNzUsMzQuNDM3NSBaICIgZmlsbD0iIzAwMDAwMCIvPjx0ZXh0IGZpbGw9IiMwMDAwMDAiIGZvbnQtZmFtaWx5PSJzYW5zLXNlcmlmIiBmb250LXNpemU9IjE0IiBsZW5ndGhBZGp1c3Q9InNwYWNpbmciIHRleHRMZW5ndGg9IjU2IiB4PSIzNDIuMjUiIHk9IjQzLjc0MjIiPkRhdGFiYXNlPC90ZXh0PjxsaW5lIHN0eWxlPSJzdHJva2U6IzE4MTgxODtzdHJva2Utd2lkdGg6MC41OyIgeDE9IjE3Mi41IiB4Mj0iNTM1LjUiIHkxPSI1NCIgeTI9IjU0Ii8+PGxpbmUgc3R5bGU9InN0cm9rZTojMTgxODE4O3N0cm9rZS13aWR0aDowLjU7IiB4MT0iMTcyLjUiIHgyPSI1MzUuNSIgeTE9IjYyIiB5Mj0iNjIiLz48ZWxsaXBzZSBjeD0iMTgyLjUiIGN5PSI3NC45OTIyIiBmaWxsPSIjODRCRTg0IiByeD0iMyIgcnk9IjMiIHN0eWxlPSJzdHJva2U6IzAzODA0ODtzdHJva2Utd2lkdGg6MS4wOyIvPjx0ZXh0IGZpbGw9IiMwMDAwMDAiIGZvbnQtZmFtaWx5PSJzYW5zLXNlcmlmIiBmb250LXNpemU9IjE0IiBsZW5ndGhBZGp1c3Q9InNwYWNpbmciIHRleHRMZW5ndGg9IjE0OSIgeD0iMTkxLjUiIHk9Ijc5LjIzNDQiPmdldENvbm5lY3Rpb24oKSA6IFBETzwvdGV4dD48ZWxsaXBzZSBjeD0iMTgyLjUiIGN5PSI4OS45NzY2IiBmaWxsPSIjODRCRTg0IiByeD0iMyIgcnk9IjMiIHN0eWxlPSJzdHJva2U6IzAzODA0ODtzdHJva2Utd2lkdGg6MS4wOyIvPjx0ZXh0IGZpbGw9IiMwMDAwMDAiIGZvbnQtZmFtaWx5PSJzYW5zLXNlcmlmIiBmb250LXNpemU9IjE0IiBsZW5ndGhBZGp1c3Q9InNwYWNpbmciIHRleHRMZW5ndGg9IjMzOSIgeD0iMTkxLjUiIHk9Ijk0LjIxODgiPmV4ZWN1dGVRdWVyeShzdHJpbmcgcXVlcnksIGFycmF5IHBhcmFtcykgOiBhcnJheTwvdGV4dD48ZWxsaXBzZSBjeD0iMTgyLjUiIGN5PSIxMDQuOTYwOSIgZmlsbD0iIzg0QkU4NCIgcng9IjMiIHJ5PSIzIiBzdHlsZT0ic3Ryb2tlOiMwMzgwNDg7c3Ryb2tlLXdpZHRoOjEuMDsiLz48dGV4dCBmaWxsPSIjMDAwMDAwIiBmb250LWZhbWlseT0ic2Fucy1zZXJpZiIgZm9udC1zaXplPSIxNCIgbGVuZ3RoQWRqdXN0PSJzcGFjaW5nIiB0ZXh0TGVuZ3RoPSIxNzAiIHg9IjE5MS41IiB5PSIxMDkuMjAzMSI+Y2xvc2VDb25uZWN0aW9uKCkgOiB2b2lkPC90ZXh0PjwvZz48IS0tY2xhc3MgUm91dGVyLS0+PGcgaWQ9ImVsZW1fUm91dGVyIj48cmVjdCBjb2RlTGluZT0iMTA1IiBmaWxsPSIjRjFGMUYxIiBoZWlnaHQ9Ijc3Ljk2ODgiIGlkPSJSb3V0ZXIiIHJ4PSIyLjUiIHJ5PSIyLjUiIHN0eWxlPSJzdHJva2U6IzE4MTgxODtzdHJva2Utd2lkdGg6MC41OyIgd2lkdGg9IjQwNiIgeD0iODc2IiB5PSIyOS41Ii8+PGVsbGlwc2UgY3g9IjEwNTMuNzUiIGN5PSI0NS41IiBmaWxsPSIjQUREMUIyIiByeD0iMTEiIHJ5PSIxMSIgc3R5bGU9InN0cm9rZTojMTgxODE4O3N0cm9rZS13aWR0aDoxLjA7Ii8+PHBhdGggZD0iTTEwNTEuMzc1LDQ5Ljc1IEwxMDUxLjM3NSw1MS41IEwxMDU2LjMxMjUsNTEuNSBMMTA1Ni4zMTI1LDQ5Ljc1IEwxMDUxLjM3NSw0OS43NSBaIE0xMDUyLjA2MjUsNTAuNDM3NSBRMTA1Mi4wNjI1LDUwLjQzNzUgMTA1Mi4wNjI1LDQxLjI1IEwxMDUwLjMxMjUsNDEuMjUgUTEwNTAuMzEyNSw0MS4yNSAxMDUwLjMxMjUsNTAuNDM3NSBMMTA1Mi4wNjI1LDUwLjQzNzUgWiBNMTA1NS42MjUsNTAuNDM3NSBMMTA1Ny4zNzUsNTAuNDM3NSBRMTA1Ny4zNzUsNTAuNDM3NSAxMDU3LjM3NSw0Ny42MjUgTDEwNTUuNjI1LDQ3LjYyNSBRMTA1NS42MjUsNDcuNjI1IDEwNTUuNjI1LDUwLjQzNzUgWiBNMTA1NS42MjUsNDEuMjUgUTEwNTUuNjI1LDQxLjI1IDEwNTUuNjI1LDQ0LjA2MjUgTDEwNTcuMzc1LDQ0LjA2MjUgUTEwNTcuMzc1LDQ0LjA2MjUgMTA1Ny4zNzUsNDEuMjUgTDEwNTUuNjI1LDQxLjI1IFogTTEwNTEuMzc1LDQxLjkzNzUgTDEwNTYuMzEyNSw0MS45Mzc1IEwxMDU2LjMxMjUsNDAuMTg3NSBMMTA1MS4zNzUsNDAuMTg3NSBMMTA1MS4zNzUsNDEuOTM3NSBaICIgZmlsbD0iIzAwMDAwMCIvPjx0ZXh0IGZpbGw9IiMwMDAwMDAiIGZvbnQtZmFtaWx5PSJzYW5zLXNlcmlmIiBmb250LXNpemU9IjE0IiBsZW5ndGhBZGp1c3Q9InNwYWNpbmciIHRleHRMZW5ndGg9IjQyIiB4PSIxMDc0LjI1IiB5PSI1MS4yNDIyIj5Sb3V0ZXI8L3RleHQ+PGxpbmUgc3R5bGU9InN0cm9rZTojMTgxODE4O3N0cm9rZS13aWR0aDowLjU7IiB4MT0iODc3IiB4Mj0iMTI4MSIgeTE9IjYxLjUiIHkyPSI2MS41Ii8+PGxpbmUgc3R5bGU9InN0cm9rZTojMTgxODE4O3N0cm9rZS13aWR0aDowLjU7IiB4MT0iODc3IiB4Mj0iMTI4MSIgeTE9IjY5LjUiIHkyPSI2OS41Ii8+PGVsbGlwc2UgY3g9Ijg4NyIgY3k9IjgyLjQ5MjIiIGZpbGw9IiM4NEJFODQiIHJ4PSIzIiByeT0iMyIgc3R5bGU9InN0cm9rZTojMDM4MDQ4O3N0cm9rZS13aWR0aDoxLjA7Ii8+PHRleHQgZmlsbD0iIzAwMDAwMCIgZm9udC1mYW1pbHk9InNhbnMtc2VyaWYiIGZvbnQtc2l6ZT0iMTQiIGxlbmd0aEFkanVzdD0ic3BhY2luZyIgdGV4dExlbmd0aD0iMzgwIiB4PSI4OTYiIHk9Ijg2LjczNDQiPmFkZFJvdXRlKHN0cmluZyByb3V0ZSwgc3RyaW5nIGNvbnRyb2xsZXJNZXRob2QpIDogdm9pZDwvdGV4dD48ZWxsaXBzZSBjeD0iODg3IiBjeT0iOTcuNDc2NiIgZmlsbD0iIzg0QkU4NCIgcng9IjMiIHJ5PSIzIiBzdHlsZT0ic3Ryb2tlOiMwMzgwNDg7c3Ryb2tlLXdpZHRoOjEuMDsiLz48dGV4dCBmaWxsPSIjMDAwMDAwIiBmb250LWZhbWlseT0ic2Fucy1zZXJpZiIgZm9udC1zaXplPSIxNCIgbGVuZ3RoQWRqdXN0PSJzcGFjaW5nIiB0ZXh0TGVuZ3RoPSIxOTEiIHg9Ijg5NiIgeT0iMTAxLjcxODgiPmRpc3BhdGNoKHN0cmluZyB1cmwpIDogdm9pZDwvdGV4dD48L2c+PCEtLWNsYXNzIFNlc3Npb25NYW5hZ2VyLS0+PGcgaWQ9ImVsZW1fU2Vzc2lvbk1hbmFnZXIiPjxyZWN0IGNvZGVMaW5lPSIxMTAiIGZpbGw9IiNGMUYxRjEiIGhlaWdodD0iMTIyLjkyMTkiIGlkPSJTZXNzaW9uTWFuYWdlciIgcng9IjIuNSIgcnk9IjIuNSIgc3R5bGU9InN0cm9rZTojMTgxODE4O3N0cm9rZS13aWR0aDowLjU7IiB3aWR0aD0iMjc0IiB4PSIxMzE3IiB5PSI3Ii8+PGVsbGlwc2UgY3g9IjE0MDAuNzUiIGN5PSIyMyIgZmlsbD0iI0FERDFCMiIgcng9IjExIiByeT0iMTEiIHN0eWxlPSJzdHJva2U6IzE4MTgxODtzdHJva2Utd2lkdGg6MS4wOyIvPjxwYXRoIGQ9Ik0xMzk4LjM3NSwyNy4yNSBMMTM5OC4zNzUsMjkgTDE0MDMuMzEyNSwyOSBMMTQwMy4zMTI1LDI3LjI1IEwxMzk4LjM3NSwyNy4yNSBaIE0xMzk5LjA2MjUsMjcuOTM3NSBRMTM5OS4wNjI1LDI3LjkzNzUgMTM5OS4wNjI1LDE4Ljc1IEwxMzk3LjMxMjUsMTguNzUgUTEzOTcuMzEyNSwxOC43NSAxMzk3LjMxMjUsMjcuOTM3NSBMMTM5OS4wNjI1LDI3LjkzNzUgWiBNMTQwMi42MjUsMjcuOTM3NSBMMTQwNC4zNzUsMjcuOTM3NSBRMTQwNC4zNzUsMjcuOTM3NSAxNDA0LjM3NSwyNS4xMjUgTDE0MDIuNjI1LDI1LjEyNSBRMTQwMi42MjUsMjUuMTI1IDE0MDIuNjI1LDI3LjkzNzUgWiBNMTQwMi42MjUsMTguNzUgUTE0MDIuNjI1LDE4Ljc1IDE0MDIuNjI1LDIxLjU2MjUgTDE0MDQuMzc1LDIxLjU2MjUgUTE0MDQuMzc1LDIxLjU2MjUgMTQwNC4zNzUsMTguNzUgTDE0MDIuNjI1LDE4Ljc1IFogTTEzOTguMzc1LDE5LjQzNzUgTDE0MDMuMzEyNSwxOS40Mzc1IEwxNDAzLjMxMjUsMTcuNjg3NSBMMTM5OC4zNzUsMTcuNjg3NSBMMTM5OC4zNzUsMTkuNDM3NSBaICIgZmlsbD0iIzAwMDAwMCIvPjx0ZXh0IGZpbGw9IiMwMDAwMDAiIGZvbnQtZmFtaWx5PSJzYW5zLXNlcmlmIiBmb250LXNpemU9IjE0IiBsZW5ndGhBZGp1c3Q9InNwYWNpbmciIHRleHRMZW5ndGg9Ijk4IiB4PSIxNDIxLjI1IiB5PSIyOC43NDIyIj5TZXNzaW9uTWFuYWdlcjwvdGV4dD48bGluZSBzdHlsZT0ic3Ryb2tlOiMxODE4MTg7c3Ryb2tlLXdpZHRoOjAuNTsiIHgxPSIxMzE4IiB4Mj0iMTU5MCIgeTE9IjM5IiB5Mj0iMzkiLz48bGluZSBzdHlsZT0ic3Ryb2tlOiMxODE4MTg7c3Ryb2tlLXdpZHRoOjAuNTsiIHgxPSIxMzE4IiB4Mj0iMTU5MCIgeTE9IjQ3IiB5Mj0iNDciLz48ZWxsaXBzZSBjeD0iMTMyOCIgY3k9IjU5Ljk5MjIiIGZpbGw9IiM4NEJFODQiIHJ4PSIzIiByeT0iMyIgc3R5bGU9InN0cm9rZTojMDM4MDQ4O3N0cm9rZS13aWR0aDoxLjA7Ii8+PHRleHQgZmlsbD0iIzAwMDAwMCIgZm9udC1mYW1pbHk9InNhbnMtc2VyaWYiIGZvbnQtc2l6ZT0iMTQiIGxlbmd0aEFkanVzdD0ic3BhY2luZyIgdGV4dExlbmd0aD0iMTQ5IiB4PSIxMzM3IiB5PSI2NC4yMzQ0Ij5zdGFydFNlc3Npb24oKSA6IHZvaWQ8L3RleHQ+PGVsbGlwc2UgY3g9IjEzMjgiIGN5PSI3NC45NzY2IiBmaWxsPSIjODRCRTg0IiByeD0iMyIgcnk9IjMiIHN0eWxlPSJzdHJva2U6IzAzODA0ODtzdHJva2Utd2lkdGg6MS4wOyIvPjx0ZXh0IGZpbGw9IiMwMDAwMDAiIGZvbnQtZmFtaWx5PSJzYW5zLXNlcmlmIiBmb250LXNpemU9IjE0IiBsZW5ndGhBZGp1c3Q9InNwYWNpbmciIHRleHRMZW5ndGg9IjE2MyIgeD0iMTMzNyIgeT0iNzkuMjE4OCI+ZGVzdHJveVNlc3Npb24oKSA6IHZvaWQ8L3RleHQ+PGVsbGlwc2UgY3g9IjEzMjgiIGN5PSI4OS45NjA5IiBmaWxsPSIjODRCRTg0IiByeD0iMyIgcnk9IjMiIHN0eWxlPSJzdHJva2U6IzAzODA0ODtzdHJva2Utd2lkdGg6MS4wOyIvPjx0ZXh0IGZpbGw9IiMwMDAwMDAiIGZvbnQtZmFtaWx5PSJzYW5zLXNlcmlmIiBmb250LXNpemU9IjE0IiBsZW5ndGhBZGp1c3Q9InNwYWNpbmciIHRleHRMZW5ndGg9IjI0OCIgeD0iMTMzNyIgeT0iOTQuMjAzMSI+c2V0KHN0cmluZyBrZXksIG1peGVkIHZhbHVlKSA6IHZvaWQ8L3RleHQ+PGVsbGlwc2UgY3g9IjEzMjgiIGN5PSIxMDQuOTQ1MyIgZmlsbD0iIzg0QkU4NCIgcng9IjMiIHJ5PSIzIiBzdHlsZT0ic3Ryb2tlOiMwMzgwNDg7c3Ryb2tlLXdpZHRoOjEuMDsiLz48dGV4dCBmaWxsPSIjMDAwMDAwIiBmb250LWZhbWlseT0ic2Fucy1zZXJpZiIgZm9udC1zaXplPSIxNCIgbGVuZ3RoQWRqdXN0PSJzcGFjaW5nIiB0ZXh0TGVuZ3RoPSIxNjQiIHg9IjEzMzciIHk9IjEwOS4xODc1Ij5nZXQoc3RyaW5nIGtleSkgOiBtaXhlZDwvdGV4dD48ZWxsaXBzZSBjeD0iMTMyOCIgY3k9IjExOS45Mjk3IiBmaWxsPSIjODRCRTg0IiByeD0iMyIgcnk9IjMiIHN0eWxlPSJzdHJva2U6IzAzODA0ODtzdHJva2Utd2lkdGg6MS4wOyIvPjx0ZXh0IGZpbGw9IiMwMDAwMDAiIGZvbnQtZmFtaWx5PSJzYW5zLXNlcmlmIiBmb250LXNpemU9IjE0IiBsZW5ndGhBZGp1c3Q9InNwYWNpbmciIHRleHRMZW5ndGg9IjE1NiIgeD0iMTMzNyIgeT0iMTI0LjE3MTkiPmhhcyhzdHJpbmcga2V5KSA6IGJvb2w8L3RleHQ+PC9nPjwhLS1saW5rIFBhdGllbnQgdG8gQXBwb2ludG1lbnQtLT48ZyBpZD0ibGlua19QYXRpZW50X0FwcG9pbnRtZW50Ij48cGF0aCBjb2RlTGluZT0iNDMiIGQ9Ik0yMDMuODMsNDE4LjE5IEMyMjUuMDksNDQyLjY1IDI0Ny42Myw0NjguNTkgMjY4LjYsNDkyLjcyICIgZmlsbD0ibm9uZSIgaWQ9IlBhdGllbnQtQXBwb2ludG1lbnQiIHN0eWxlPSJzdHJva2U6IzE4MTgxODtzdHJva2Utd2lkdGg6MS4wOyIvPjxwb2x5Z29uIGZpbGw9IiMwMDAwMDAiIHBvaW50cz0iMjQ5LjI3OTgsNDU5LjczMSwyNDUuNTY0OSw0NTAuOTc2LDI0MS4xMjgzLDQ1NC44MzE2LDI0OS4yNzk4LDQ1OS43MzEiIHN0eWxlPSJzdHJva2U6IzAwMDAwMDtzdHJva2Utd2lkdGg6MS4wOyIvPjx0ZXh0IGZpbGw9IiMwMDAwMDAiIGZvbnQtZmFtaWx5PSJzYW5zLXNlcmlmIiBmb250LXNpemU9IjEzIiBsZW5ndGhBZGp1c3Q9InNwYWNpbmciIHRleHRMZW5ndGg9IjIxIiB4PSIyNTUiIHk9IjQ2MS4yODkxIj5oYXM8L3RleHQ+PHRleHQgZmlsbD0iIzAwMDAwMCIgZm9udC1mYW1pbHk9InNhbnMtc2VyaWYiIGZvbnQtc2l6ZT0iMTMiIGxlbmd0aEFkanVzdD0ic3BhY2luZyIgdGV4dExlbmd0aD0iNyIgeD0iMjAyLjc2NDciIHk9IjQzOC4xMjA1Ij4xPC90ZXh0Pjx0ZXh0IGZpbGw9IiMwMDAwMDAiIGZvbnQtZmFtaWx5PSJzYW5zLXNlcmlmIiBmb250LXNpemU9IjEzIiBsZW5ndGhBZGp1c3Q9InNwYWNpbmciIHRleHRMZW5ndGg9IjI1IiB4PSIyMzUuNDkyNyIgeT0iNDgzLjI5MzUiPjAuLio8L3RleHQ+PC9nPjwhLS1saW5rIERvY3RvciB0byBBcHBvaW50bWVudC0tPjxnIGlkPSJsaW5rX0RvY3Rvcl9BcHBvaW50bWVudCI+PHBhdGggY29kZUxpbmU9IjQ0IiBkPSJNMzU0LDQxMC42OSBDMzU0LDQzNy4zMSAzNTQsNDY2LjEzIDM1NCw0OTIuNzYgIiBmaWxsPSJub25lIiBpZD0iRG9jdG9yLUFwcG9pbnRtZW50IiBzdHlsZT0ic3Ryb2tlOiMxODE4MTg7c3Ryb2tlLXdpZHRoOjEuMDsiLz48cG9seWdvbiBmaWxsPSIjMDAwMDAwIiBwb2ludHM9IjM1OSw0NjAuOTU3LDM2MS45Mzg5LDQ1MS45MTE5LDM1Ni4wNjExLDQ1MS45MTE5LDM1OSw0NjAuOTU3IiBzdHlsZT0ic3Ryb2tlOiMwMDAwMDA7c3Ryb2tlLXdpZHRoOjEuMDsiLz48dGV4dCBmaWxsPSIjMDAwMDAwIiBmb250LWZhbWlseT0ic2Fucy1zZXJpZiIgZm9udC1zaXplPSIxMyIgbGVuZ3RoQWRqdXN0PSJzcGFjaW5nIiB0ZXh0TGVuZ3RoPSIyMSIgeD0iMzY4IiB5PSI0NjEuMjg5MSI+aGFzPC90ZXh0Pjx0ZXh0IGZpbGw9IiMwMDAwMDAiIGZvbnQtZmFtaWx5PSJzYW5zLXNlcmlmIiBmb250LXNpemU9IjEzIiBsZW5ndGhBZGp1c3Q9InNwYWNpbmciIHRleHRMZW5ndGg9IjciIHg9IjM0Ni43NDMiIHk9IjQzMC43OCI+MTwvdGV4dD48dGV4dCBmaWxsPSIjMDAwMDAwIiBmb250LWZhbWlseT0ic2Fucy1zZXJpZiIgZm9udC1zaXplPSIxMyIgbGVuZ3RoQWRqdXN0PSJzcGFjaW5nIiB0ZXh0TGVuZ3RoPSIyNSIgeD0iMzI3Ljk2NDgiIHk9IjQ4My4zMzY4Ij4wLi4qPC90ZXh0PjwvZz48IS0tbGluayBQYXRpZW50Q29udHJvbGxlciB0byBQYXRpZW50Vmlldy0tPjxnIGlkPSJsaW5rX1BhdGllbnRDb250cm9sbGVyX1BhdGllbnRWaWV3Ij48cGF0aCBjb2RlTGluZT0iOTQiIGQ9Ik03OTUuNzQsMzgwLjYzIEM3NzkuOSw0MjkuMSA3NjAuNzk0LDQ4Ny41ODY5IDc0Ni4xOTQsNTMyLjI1NjkgIiBmaWxsPSJub25lIiBpZD0iUGF0aWVudENvbnRyb2xsZXItdG8tUGF0aWVudFZpZXciIHN0eWxlPSJzdHJva2U6IzE4MTgxODtzdHJva2Utd2lkdGg6MS4wOyIvPjxwb2x5Z29uIGZpbGw9IiMxODE4MTgiIHBvaW50cz0iNzQ0LjMzLDUzNy45Niw3NTAuOTI4MSw1MzAuNjQ4LDc0NS44ODMzLDUzMy4yMDc0LDc0My4zMjM5LDUyOC4xNjI3LDc0NC4zMyw1MzcuOTYiIHN0eWxlPSJzdHJva2U6IzE4MTgxODtzdHJva2Utd2lkdGg6MS4wOyIvPjxwb2x5Z29uIGZpbGw9IiMwMDAwMDAiIHBvaW50cz0iNzc2LjQ0Nyw0NjAuNzA5Nyw3ODIuMDUsNDUzLjAyNDgsNzc2LjQ2MjgsNDUxLjE5OTIsNzc2LjQ0Nyw0NjAuNzA5NyIgc3R5bGU9InN0cm9rZTojMDAwMDAwO3N0cm9rZS13aWR0aDoxLjA7Ii8+PHRleHQgZmlsbD0iIzAwMDAwMCIgZm9udC1mYW1pbHk9InNhbnMtc2VyaWYiIGZvbnQtc2l6ZT0iMTMiIGxlbmd0aEFkanVzdD0ic3BhY2luZyIgdGV4dExlbmd0aD0iMjgiIHg9Ijc4NyIgeT0iNDYxLjI4OTEiPnVzZXM8L3RleHQ+PC9nPjwhLS1saW5rIERvY3RvckNvbnRyb2xsZXIgdG8gRG9jdG9yVmlldy0tPjxnIGlkPSJsaW5rX0RvY3RvckNvbnRyb2xsZXJfRG9jdG9yVmlldyI+PHBhdGggY29kZUxpbmU9Ijk1IiBkPSJNMTYyMy44MywzODguMjMgQzE2MzkuOTksNDM1LjU5IDE2NTguNDYyOSw0ODkuNzQxMyAxNjcyLjkxMjksNTMyLjEwMTMgIiBmaWxsPSJub25lIiBpZD0iRG9jdG9yQ29udHJvbGxlci10by1Eb2N0b3JWaWV3IiBzdHlsZT0ic3Ryb2tlOiMxODE4MTg7c3Ryb2tlLXdpZHRoOjEuMDsiLz48cG9seWdvbiBmaWxsPSIjMTgxODE4IiBwb2ludHM9IjE2NzQuODUsNTM3Ljc4LDE2NzUuNzMwMSw1MjcuOTcwNSwxNjczLjIzNTcsNTMzLjA0NzgsMTY2OC4xNTg1LDUzMC41NTM0LDE2NzQuODUsNTM3Ljc4IiBzdHlsZT0ic3Ryb2tlOiMxODE4MTg7c3Ryb2tlLXdpZHRoOjEuMDsiLz48cG9seWdvbiBmaWxsPSIjMDAwMDAwIiBwb2ludHM9IjE2NTQuNjE0NCw0NjAuNjg5MiwxNjU0LjQ3NTQsNDUxLjE3OTcsMTY0OC45MTI0LDQ1My4wNzc1LDE2NTQuNjE0NCw0NjAuNjg5MiIgc3R5bGU9InN0cm9rZTojMDAwMDAwO3N0cm9rZS13aWR0aDoxLjA7Ii8+PHRleHQgZmlsbD0iIzAwMDAwMCIgZm9udC1mYW1pbHk9InNhbnMtc2VyaWYiIGZvbnQtc2l6ZT0iMTMiIGxlbmd0aEFkanVzdD0ic3BhY2luZyIgdGV4dExlbmd0aD0iMjgiIHg9IjE2NjIiIHk9IjQ2MS4yODkxIj51c2VzPC90ZXh0PjwvZz48IS0tbGluayBBZG1pbkNvbnRyb2xsZXIgdG8gQWRtaW5WaWV3LS0+PGcgaWQ9ImxpbmtfQWRtaW5Db250cm9sbGVyX0FkbWluVmlldyI+PHBhdGggY29kZUxpbmU9Ijk2IiBkPSJNMTIxMCwzNTguMTggQzEyMTAsNDA5Ljg3IDEyMTAsNDg3LjU5IDEyMTAsNTM5LjMgIiBmaWxsPSJub25lIiBpZD0iQWRtaW5Db250cm9sbGVyLXRvLUFkbWluVmlldyIgc3R5bGU9InN0cm9rZTojMTgxODE4O3N0cm9rZS13aWR0aDoxLjA7Ii8+PHBvbHlnb24gZmlsbD0iIzE4MTgxOCIgcG9pbnRzPSIxMjEwLDU0NS4zLDEyMTQsNTM2LjMsMTIxMCw1NDAuMywxMjA2LDUzNi4zLDEyMTAsNTQ1LjMiIHN0eWxlPSJzdHJva2U6IzE4MTgxODtzdHJva2Utd2lkdGg6MS4wOyIvPjxwb2x5Z29uIGZpbGw9IiMwMDAwMDAiIHBvaW50cz0iMTIxNSw0NjAuOTU3LDEyMTcuOTM4OSw0NTEuOTExOSwxMjEyLjA2MTEsNDUxLjkxMTksMTIxNSw0NjAuOTU3IiBzdHlsZT0ic3Ryb2tlOiMwMDAwMDA7c3Ryb2tlLXdpZHRoOjEuMDsiLz48dGV4dCBmaWxsPSIjMDAwMDAwIiBmb250LWZhbWlseT0ic2Fucy1zZXJpZiIgZm9udC1zaXplPSIxMyIgbGVuZ3RoQWRqdXN0PSJzcGFjaW5nIiB0ZXh0TGVuZ3RoPSIyOCIgeD0iMTIyNCIgeT0iNDYxLjI4OTEiPnVzZXM8L3RleHQ+PC9nPjwhLS1yZXZlcnNlIGxpbmsgRGF0YWJhc2UgdG8gUGF0aWVudC0tPjxnIGlkPSJsaW5rX0RhdGFiYXNlX1BhdGllbnQiPjxwYXRoIGNvZGVMaW5lPSIxMTkiIGQ9Ik0zMDMuOTQ5MSwxMTkuMzQ0NCBDMjc4LjExOTEsMTQ1LjA3NDQgMjQ4Ljk2LDE3NC4xIDIxNy4wNiwyMDUuODcgIiBmaWxsPSJub25lIiBpZD0iRGF0YWJhc2UtYmFja3RvLVBhdGllbnQiIHN0eWxlPSJzdHJva2U6IzE4MTgxODtzdHJva2Utd2lkdGg6MS4wO3N0cm9rZS1kYXNoYXJyYXk6Ny4wLDcuMDsiLz48cG9seWdvbiBmaWxsPSIjMTgxODE4IiBwb2ludHM9IjMwOC4yLDExNS4xMSwyOTkuMDAwOCwxMTguNjI3NywzMDQuNjU3NiwxMTguNjM4NywzMDQuNjQ2NiwxMjQuMjk1NSwzMDguMiwxMTUuMTEiIHN0eWxlPSJzdHJva2U6IzE4MTgxODtzdHJva2Utd2lkdGg6MS4wOyIvPjx0ZXh0IGZpbGw9IiMwMDAwMDAiIGZvbnQtZmFtaWx5PSJzYW5zLXNlcmlmIiBmb250LXNpemU9IjEzIiBsZW5ndGhBZGp1c3Q9InNwYWNpbmciIHRleHRMZW5ndGg9IjI4IiB4PSIyNjMiIHk9IjE3My4yODkxIj51c2VzPC90ZXh0PjwvZz48IS0tcmV2ZXJzZSBsaW5rIERhdGFiYXNlIHRvIERvY3Rvci0tPjxnIGlkPSJsaW5rX0RhdGFiYXNlX0RvY3RvciI+PHBhdGggY29kZUxpbmU9IjEyMCIgZD0iTTM1NCwxMjEuMTEgQzM1NCwxNDguNjEgMzU0LDE3OC43MyAzNTQsMjEyLjQyICIgZmlsbD0ibm9uZSIgaWQ9IkRhdGFiYXNlLWJhY2t0by1Eb2N0b3IiIHN0eWxlPSJzdHJva2U6IzE4MTgxODtzdHJva2Utd2lkdGg6MS4wO3N0cm9rZS1kYXNoYXJyYXk6Ny4wLDcuMDsiLz48cG9seWdvbiBmaWxsPSIjMTgxODE4IiBwb2ludHM9IjM1NCwxMTUuMTEsMzUwLDEyNC4xMSwzNTQsMTIwLjExLDM1OCwxMjQuMTEsMzU0LDExNS4xMSIgc3R5bGU9InN0cm9rZTojMTgxODE4O3N0cm9rZS13aWR0aDoxLjA7Ii8+PHRleHQgZmlsbD0iIzAwMDAwMCIgZm9udC1mYW1pbHk9InNhbnMtc2VyaWYiIGZvbnQtc2l6ZT0iMTMiIGxlbmd0aEFkanVzdD0ic3BhY2luZyIgdGV4dExlbmd0aD0iMjgiIHg9IjM1NSIgeT0iMTczLjI4OTEiPnVzZXM8L3RleHQ+PC9nPjwhLS1yZXZlcnNlIGxpbmsgRGF0YWJhc2UgdG8gQXBwb2ludG1lbnQtLT48ZyBpZD0ibGlua19EYXRhYmFzZV9BcHBvaW50bWVudCI+PHBhdGggY29kZUxpbmU9IjEyMSIgZD0iTTQxMy40MDA5LDExOS4yMjM2IEM0MzcuOTcwOSwxNDMuMTIzNiA0NTkuOTcsMTcwLjQzIDQ3MywyMDUgQzUwNi4zOCwyOTMuNTkgNTAxLjA5LDMyNy42IDQ3Myw0MTggQzQ2NC45NCw0NDMuOTQgNDUxLjQ5LDQ2OS40MyA0MzYuNDgsNDkyLjU0ICIgZmlsbD0ibm9uZSIgaWQ9IkRhdGFiYXNlLWJhY2t0by1BcHBvaW50bWVudCIgc3R5bGU9InN0cm9rZTojMTgxODE4O3N0cm9rZS13aWR0aDoxLjA7c3Ryb2tlLWRhc2hhcnJheTo3LjAsNy4wOyIvPjxwb2x5Z29uIGZpbGw9IiMxODE4MTgiIHBvaW50cz0iNDA5LjEsMTE1LjA0LDQxMi43NjIzLDEyNC4xODI2LDQxMi42ODQxLDExOC41MjYzLDQxOC4zNDA0LDExOC40NDgxLDQwOS4xLDExNS4wNCIgc3R5bGU9InN0cm9rZTojMTgxODE4O3N0cm9rZS13aWR0aDoxLjA7Ii8+PHRleHQgZmlsbD0iIzAwMDAwMCIgZm9udC1mYW1pbHk9InNhbnMtc2VyaWYiIGZvbnQtc2l6ZT0iMTMiIGxlbmd0aEFkanVzdD0ic3BhY2luZyIgdGV4dExlbmd0aD0iMjgiIHg9IjQ5OCIgeT0iMzE3LjI4OTEiPnVzZXM8L3RleHQ+PC9nPjwhLS1yZXZlcnNlIGxpbmsgUm91dGVyIHRvIFBhdGllbnRDb250cm9sbGVyLS0+PGcgaWQ9ImxpbmtfUm91dGVyX1BhdGllbnRDb250cm9sbGVyIj48cGF0aCBjb2RlTGluZT0iMTIyIiBkPSJNMTAzMy4yMzIxLDExMS43NjA3IEM5OTQuMTQyMSwxNDcuODYwNyA5MzksMTk4Ljc3IDg5MS43NywyNDIuMzkgIiBmaWxsPSJub25lIiBpZD0iUm91dGVyLWJhY2t0by1QYXRpZW50Q29udHJvbGxlciIgc3R5bGU9InN0cm9rZTojMTgxODE4O3N0cm9rZS13aWR0aDoxLjA7c3Ryb2tlLWRhc2hhcnJheTo3LjAsNy4wOyIvPjxwb2x5Z29uIGZpbGw9IiMxODE4MTgiIHBvaW50cz0iMTAzNy42NCwxMDcuNjksMTAyOC4zMTQ0LDExMC44NTc1LDEwMzMuOTY2OCwxMTEuMDgyMywxMDMzLjc0MiwxMTYuNzM0NiwxMDM3LjY0LDEwNy42OSIgc3R5bGU9InN0cm9rZTojMTgxODE4O3N0cm9rZS13aWR0aDoxLjA7Ii8+PHRleHQgZmlsbD0iIzAwMDAwMCIgZm9udC1mYW1pbHk9InNhbnMtc2VyaWYiIGZvbnQtc2l6ZT0iMTMiIGxlbmd0aEFkanVzdD0ic3BhY2luZyIgdGV4dExlbmd0aD0iNjEiIHg9Ijk4MSIgeT0iMTczLjI4OTEiPnJvdXRlcyB0bzwvdGV4dD48L2c+PCEtLXJldmVyc2UgbGluayBSb3V0ZXIgdG8gRG9jdG9yQ29udHJvbGxlci0tPjxnIGlkPSJsaW5rX1JvdXRlcl9Eb2N0b3JDb250cm9sbGVyIj48cGF0aCBjb2RlTGluZT0iMTIzIiBkPSJNMTE3NC4zMjIsMTEwLjAwMDIgQzEyMzYuMDQyLDEzNi41NDAyIDEzMTQuMTYsMTcwLjc5IDEzODcsMjA1IEMxNDA3LjIsMjE0LjQ5IDE0MjguMzcsMjI0LjcyIDE0NDkuMTcsMjM0Ljk0ICIgZmlsbD0ibm9uZSIgaWQ9IlJvdXRlci1iYWNrdG8tRG9jdG9yQ29udHJvbGxlciIgc3R5bGU9InN0cm9rZTojMTgxODE4O3N0cm9rZS13aWR0aDoxLjA7c3Ryb2tlLWRhc2hhcnJheTo3LjAsNy4wOyIvPjxwb2x5Z29uIGZpbGw9IiMxODE4MTgiIHBvaW50cz0iMTE2OC44MSwxMDcuNjMsMTE3NS40OTc5LDExNC44NiwxMTczLjQwMzMsMTA5LjYwNTIsMTE3OC42NTgxLDEwNy41MTA2LDExNjguODEsMTA3LjYzIiBzdHlsZT0ic3Ryb2tlOiMxODE4MTg7c3Ryb2tlLXdpZHRoOjEuMDsiLz48dGV4dCBmaWxsPSIjMDAwMDAwIiBmb250LWZhbWlseT0ic2Fucy1zZXJpZiIgZm9udC1zaXplPSIxMyIgbGVuZ3RoQWRqdXN0PSJzcGFjaW5nIiB0ZXh0TGVuZ3RoPSI2MSIgeD0iMTMyMSIgeT0iMTczLjI4OTEiPnJvdXRlcyB0bzwvdGV4dD48L2c+PCEtLXJldmVyc2UgbGluayBSb3V0ZXIgdG8gQWRtaW5Db250cm9sbGVyLS0+PGcgaWQ9ImxpbmtfUm91dGVyX0FkbWluQ29udHJvbGxlciI+PHBhdGggY29kZUxpbmU9IjEyNCIgZD0iTTEwOTMuNzA4NCwxMTMuNjIwMyBDMTEwMC45ODg0LDEzNC4wMDAzIDExMDguODcsMTUzLjU0IDExMjAsMTc1IEMxMTM2LjI1LDIwNi4zNCAxMTU4LjA5LDIzOS4zOCAxMTc2LjE5LDI2NC45OSAiIGZpbGw9Im5vbmUiIGlkPSJSb3V0ZXItYmFja3RvLUFkbWluQ29udHJvbGxlciIgc3R5bGU9InN0cm9rZTojMTgxODE4O3N0cm9rZS13aWR0aDoxLjA7c3Ryb2tlLWRhc2hhcnJheTo3LjAsNy4wOyIvPjxwb2x5Z29uIGZpbGw9IiMxODE4MTgiIHBvaW50cz0iMTA5MS42OSwxMDcuOTcsMTA5MC45NTA3LDExNy43OTExLDEwOTMuMzcyLDExMi42Nzg2LDEwOTguNDg0NCwxMTUuMDk5OSwxMDkxLjY5LDEwNy45NyIgc3R5bGU9InN0cm9rZTojMTgxODE4O3N0cm9rZS13aWR0aDoxLjA7Ii8+PHRleHQgZmlsbD0iIzAwMDAwMCIgZm9udC1mYW1pbHk9InNhbnMtc2VyaWYiIGZvbnQtc2l6ZT0iMTMiIGxlbmd0aEFkanVzdD0ic3BhY2luZyIgdGV4dExlbmd0aD0iNjEiIHg9IjExMjEiIHk9IjE3My4yODkxIj5yb3V0ZXMgdG88L3RleHQ+PC9nPjwhLS1yZXZlcnNlIGxpbmsgU2Vzc2lvbk1hbmFnZXIgdG8gUGF0aWVudENvbnRyb2xsZXItLT48ZyBpZD0ibGlua19TZXNzaW9uTWFuYWdlcl9QYXRpZW50Q29udHJvbGxlciI+PHBhdGggY29kZUxpbmU9IjEyNSIgZD0iTTEzMTEuMTg2NSwxMzEuNTAxOCBDMTI2OS45OTY1LDE0Ny45MjE4IDEyMjkuOTMsMTYyLjQyIDExODcsMTc1IEMxMTIwLjUsMTk0LjQ4IDEwOTkuNjksMTgyLjk0IDEwMzQsMjA1IEMxMDAzLjgzLDIxNS4xMyA5NzIuNDcsMjI4LjU5IDk0My4zMSwyNDIuNDkgIiBmaWxsPSJub25lIiBpZD0iU2Vzc2lvbk1hbmFnZXItYmFja3RvLVBhdGllbnRDb250cm9sbGVyIiBzdHlsZT0ic3Ryb2tlOiMxODE4MTg7c3Ryb2tlLXdpZHRoOjEuMDtzdHJva2UtZGFzaGFycmF5OjcuMCw3LjA7Ii8+PHBvbHlnb24gZmlsbD0iIzE4MTgxOCIgcG9pbnRzPSIxMzE2Ljc2LDEyOS4yOCwxMzA2LjkxODYsMTI4Ljg5NzEsMTMxMi4xMTU0LDEzMS4xMzE1LDEzMDkuODgxLDEzNi4zMjg0LDEzMTYuNzYsMTI5LjI4IiBzdHlsZT0ic3Ryb2tlOiMxODE4MTg7c3Ryb2tlLXdpZHRoOjEuMDsiLz48dGV4dCBmaWxsPSIjMDAwMDAwIiBmb250LWZhbWlseT0ic2Fucy1zZXJpZiIgZm9udC1zaXplPSIxMyIgbGVuZ3RoQWRqdXN0PSJzcGFjaW5nIiB0ZXh0TGVuZ3RoPSI0OCIgeD0iMTIzMiIgeT0iMTczLjI4OTEiPm1hbmFnZXM8L3RleHQ+PC9nPjwhLS1yZXZlcnNlIGxpbmsgU2Vzc2lvbk1hbmFnZXIgdG8gRG9jdG9yQ29udHJvbGxlci0tPjxnIGlkPSJsaW5rX1Nlc3Npb25NYW5hZ2VyX0RvY3RvckNvbnRyb2xsZXIiPjxwYXRoIGNvZGVMaW5lPSIxMjYiIGQ9Ik0xNDkzLjIyODIsMTM1LjE1MDIgQzE1MTIuMjI4MiwxNjYuOTQwMiAxNTMyLjYxLDIwMS4wNiAxNTUyLjgsMjM0Ljg1ICIgZmlsbD0ibm9uZSIgaWQ9IlNlc3Npb25NYW5hZ2VyLWJhY2t0by1Eb2N0b3JDb250cm9sbGVyIiBzdHlsZT0ic3Ryb2tlOiMxODE4MTg7c3Ryb2tlLXdpZHRoOjEuMDtzdHJva2UtZGFzaGFycmF5OjcuMCw3LjA7Ii8+PHBvbHlnb24gZmlsbD0iIzE4MTgxOCIgcG9pbnRzPSIxNDkwLjE1LDEzMCwxNDkxLjMzMzcsMTM5Ljc3NzUsMTQ5Mi43MTUxLDEzNC4yOTE5LDE0OTguMjAwNywxMzUuNjczMywxNDkwLjE1LDEzMCIgc3R5bGU9InN0cm9rZTojMTgxODE4O3N0cm9rZS13aWR0aDoxLjA7Ii8+PHRleHQgZmlsbD0iIzAwMDAwMCIgZm9udC1mYW1pbHk9InNhbnMtc2VyaWYiIGZvbnQtc2l6ZT0iMTMiIGxlbmd0aEFkanVzdD0ic3BhY2luZyIgdGV4dExlbmd0aD0iNDgiIHg9IjE1MTQiIHk9IjE3My4yODkxIj5tYW5hZ2VzPC90ZXh0PjwvZz48IS0tcmV2ZXJzZSBsaW5rIFNlc3Npb25NYW5hZ2VyIHRvIEFkbWluQ29udHJvbGxlci0tPjxnIGlkPSJsaW5rX1Nlc3Npb25NYW5hZ2VyX0FkbWluQ29udHJvbGxlciI+PHBhdGggY29kZUxpbmU9IjEyNyIgZD0iTTE0MzEuMzY4OSwxMzUuNTAxIEMxNDI0LjM5ODksMTUxLjE1MSAxNDE3Ljk2LDE2MS44MiAxNDA3LDE3NSBDMTM3Ni44OCwyMTEuMjMgMTMzNC43NCwyNDEuOTYgMTI5Ny4xNiwyNjQuOTYgIiBmaWxsPSJub25lIiBpZD0iU2Vzc2lvbk1hbmFnZXItYmFja3RvLUFkbWluQ29udHJvbGxlciIgc3R5bGU9InN0cm9rZTojMTgxODE4O3N0cm9rZS13aWR0aDoxLjA7c3Ryb2tlLWRhc2hhcnJheTo3LjAsNy4wOyIvPjxwb2x5Z29uIGZpbGw9IiMxODE4MTgiIHBvaW50cz0iMTQzMy44MSwxMzAuMDIsMTQyNi40OTQ0LDEzNi42MTQxLDE0MzEuNzc1OCwxMzQuNTg3NSwxNDMzLjgwMjQsMTM5Ljg2ODksMTQzMy44MSwxMzAuMDIiIHN0eWxlPSJzdHJva2U6IzE4MTgxODtzdHJva2Utd2lkdGg6MS4wOyIvPjx0ZXh0IGZpbGw9IiMwMDAwMDAiIGZvbnQtZmFtaWx5PSJzYW5zLXNlcmlmIiBmb250LXNpemU9IjEzIiBsZW5ndGhBZGp1c3Q9InNwYWNpbmciIHRleHRMZW5ndGg9IjQ4IiB4PSIxNDE3IiB5PSIxNzMuMjg5MSI+bWFuYWdlczwvdGV4dD48L2c+PCEtLVNSQz1bcExQRFJ6aW0zQnRkTG1ZdnJEa1FPQmk2SE8xc21PMDB4VGdyc0V3QXBJSDJQU2NKdkJKUGlGeS1WVGNNUDJWZlcxUE8zZTRqRmFmeXYyRmJDeEkwRE02MFNlZ2IxOGRNTjIycjFOSjMydzI4dVpzOGFSTVhFd204QzhMLVp2My1WSTN3YUhKa01JZjFzME9uTjRBcTAyS2NENWdmejR2Rk43WV8wWWowdmt6c1ZLTTRzaVJHQk1WbWpJdk5FV0F0WmRVR2xLQ3BqRUZEbU5MYmw5RDU3SlpxNVpOOXVjZ19CMzhOanA1d0dmdHphYkJoWE9OMC1tamxkZV8tWjdtNjVabk5FWnNsYzAyX0EybDgyUVJhYnB3SWl4VFh3dThfSERQUDB3d05MU01yU3RjV3VrUXZTV2JRMWFrNXRNT1BiNVVINFgza0RibGVqUFl4bWdnTVJ5Q3Y4NzY4VTAybnhDLVFYWDEwUkpOYWJiR0loSzB6MEozVjVodlBIYXJCWjMtRHFNSTJuWC1kcV9WWkE3S3BqQ0tJcEtUVUVnVTFORzFmSHR4Y0owYkVBT1lYaldvaWxibTJEYUdnNDVhSmZRek5kM05BRHVIYmVMcEZLSTlMdXgzWXRFanVILTNmSmwwcmVQMTVBa1lyYjJqVFdwcVFYVHgtQ1NYNjVjT2M0NF9pUDI4OVdCOFZwZDI5bXNPLWFaUFZDWVZmTHF2UXFvVGZPeU9mRW5CMThGVG1ybTdnclo3ZFI0cjQ2SVFSbjRic19qckhFTU92cTlTdlRFRVpBMGRoOXhWNDM2X1drbUdYV251cXhfQ0c0MzR4bmlRYXVLNEY0NXFuYWVWR1RaNWt3aElkVmNaX2VNd293d3FXTTA3WUhKOXNxMlp3VmtIWHdrSUdfeHJMZUIzSnZtaU5QSk80a1pPSVpBczlqMHpwRUFBaF91STFiSy1WVzE3QWpUdXYydEkzUWdFYzRvbTJmdHlZNGNXaHJQTXprOW1qWkZfNF9INnExNlE1cXJ6b2NtSUdvTUdVQU45Y283Uk5JTzhDb2p1MnFwdXFrMnd2QlFtQmtyUTQ0aExsV19BQW1XZ2xpOEljNzFpbU9KQjgzS0RSbHhsNWhKRjFDLUlyV2N5clk3cXA4ZC1RYnRGTmNoZnAxMnZic3dmLW81MGs4VGFvYmlHenJ4a3NXbUdOWExyZUpYM2NmSHQyVUtsdTFqSU05bUVqODU5dFJ4dmpWNmoxLXlTelc5R3dhMWl4WnpmWlRTczV5Z1JVRHVkVVprLTdaSDlLU3plWnc0b0t2MWFBakNFcVhYWXVZTzM2UGc3RWdCeUc0Z0V6T0t3aEJZY2diSHhOeXl6X0lTWEhNei1Cd1JKenE3VmdZNnItVDBvUHVneVBRX1NyMnBPRGYzWHBIUEQ4eUgzT2FfTzFOQWhpNDlPS3h6M3Z4aEFIR18yMUE4d1cteDV1eTV5MF0tLT48L2c+PC9zdmc+;" vertex="1" parent="WIyWlLk6GJQsqaUBKTNV-1">
            <mxGeometry x="-550" y="-320" width="1918" height="697" as="geometry" />
          </mxCell>
        </UserObject>
      </root>
    </mxGraphModel>
  </diagram>
</mxfile>
